ISO-10303-21;
HEADER;
FILE_DESCRIPTION (( 'STEP AP214' ),
    '1' );
FILE_NAME ('00D044B3-B273-4A4A-B127-AA5B5EA364E7.STEP',
    '2023-12-12T02:02:13',
    ( '' ),
    ( '' ),
    'SwSTEP 2.0',
    'SolidWorks 2022',
    '' );
FILE_SCHEMA (( 'AUTOMOTIVE_DESIGN' ));
ENDSEC;

DATA;
#1 = VERTEX_POINT ( 'NONE', #826 ) ;
#2 = EDGE_CURVE ( 'NONE', #976, #123, #771, .T. ) ;
#3 = SURFACE_SIDE_STYLE ('',( #79 ) ) ;
#4 = DIRECTION ( 'NONE',  ( 0.0000000000000000000, -0.0000000000000000000, -1.000000000000000000 ) ) ;
#5 = ORIENTED_EDGE ( 'NONE', *, *, #1023, .T. ) ;
#6 = DIRECTION ( 'NONE',  ( 0.0000000000000000000, -0.0000000000000000000, 1.000000000000000000 ) ) ;
#7 = LINE ( 'NONE', #590, #779 ) ;
#8 =( NAMED_UNIT ( * ) SI_UNIT ( $, .STERADIAN. ) SOLID_ANGLE_UNIT ( ) );
#9 = LINE ( 'NONE', #246, #814 ) ;
#10 = EDGE_CURVE ( 'NONE', #317, #924, #388, .T. ) ;
#11 = CARTESIAN_POINT ( 'NONE',  ( -2.649999999999990141, -10.80000000000000071, 0.8000000000000000444 ) ) ;
#12 = CARTESIAN_POINT ( 'NONE',  ( 3.150000000000009681, -10.30000000000000071, 0.8000000000000000444 ) ) ;
#13 = EDGE_LOOP ( 'NONE', ( #838, #244, #791, #294 ) ) ;
#14 = FACE_OUTER_BOUND ( 'NONE', #468, .T. ) ;
#15 = STYLED_ITEM ( 'NONE', ( #955 ), #277 ) ;
#16 = VECTOR ( 'NONE', #628, 1000.000000000000000 ) ;
#17 = SURFACE_SIDE_STYLE ('',( #949 ) ) ;
#18 = FACE_OUTER_BOUND ( 'NONE', #220, .T. ) ;
#19 = AXIS2_PLACEMENT_3D ( 'NONE', #645, #146, #214 ) ;
#20 = ORIENTED_EDGE ( 'NONE', *, *, #94, .T. ) ;
#21 = CARTESIAN_POINT ( 'NONE',  ( 2.000000000000000000, -5.799999999999999822, 0.8000000000000000444 ) ) ;
#22 = LINE ( 'NONE', #365, #467 ) ;
#23 = DIRECTION ( 'NONE',  ( -0.0000000000000000000, -0.0000000000000000000, -1.000000000000000000 ) ) ;
#24 = PRODUCT_RELATED_PRODUCT_CATEGORY ( 'part', '', ( #1120 ) ) ;
#25 = EDGE_CURVE ( 'NONE', #1105, #431, #918, .T. ) ;
#26 = SURFACE_STYLE_FILL_AREA ( #275 ) ;
#27 = DIRECTION ( 'NONE',  ( 0.9995503035223667343, 0.02998650910567149386, -0.0000000000000000000 ) ) ;
#28 = UNCERTAINTY_MEASURE_WITH_UNIT (LENGTH_MEASURE( 1.000000000000000082E-05 ), #326, 'distance_accuracy_value', 'NONE');
#29 =( LENGTH_UNIT ( ) NAMED_UNIT ( * ) SI_UNIT ( .MILLI., .METRE. ) );
#30 = VERTEX_POINT ( 'NONE', #110 ) ;
#31 = VECTOR ( 'NONE', #734, 1000.000000000000000 ) ;
#32 = VERTEX_POINT ( 'NONE', #805 ) ;
#33 = FILL_AREA_STYLE ('',( #659 ) ) ;
#34 = CARTESIAN_POINT ( 'NONE',  ( 0.0000000000000000000, 0.0000000000000000000, 0.0000000000000000000 ) ) ;
#35 = ORIENTED_EDGE ( 'NONE', *, *, #882, .T. ) ;
#36 = CARTESIAN_POINT ( 'NONE',  ( 2.000000000000000000, -5.799999999999999822, 0.8000000000000000444 ) ) ;
#37 = EDGE_LOOP ( 'NONE', ( #440, #151, #463, #993 ) ) ;
#38 = ORIENTED_EDGE ( 'NONE', *, *, #145, .T. ) ;
#39 = UNCERTAINTY_MEASURE_WITH_UNIT (LENGTH_MEASURE( 1.000000000000000082E-05 ), #127, 'distance_accuracy_value', 'NONE');
#40 = DIRECTION ( 'NONE',  ( -1.000000000000000000, 0.0000000000000000000, 0.0000000000000000000 ) ) ;
#41 = ORIENTED_EDGE ( 'NONE', *, *, #387, .T. ) ;
#42 = EDGE_CURVE ( 'NONE', #954, #902, #897, .T. ) ;
#43 = FACE_OUTER_BOUND ( 'NONE', #86, .T. ) ;
#44 = STYLED_ITEM ( 'NONE', ( #752 ), #84 ) ;
#45 = MECHANICAL_DESIGN_GEOMETRIC_PRESENTATION_REPRESENTATION (  '', ( #1104 ), #330 ) ;
#46 = ORIENTED_EDGE ( 'NONE', *, *, #411, .F. ) ;
#47 = AXIS2_PLACEMENT_3D ( 'NONE', #221, #849, #784 ) ;
#48 = PRODUCT_DEFINITION_CONTEXT ( 'detailed design', #916, 'design' ) ;
#49 = PRESENTATION_LAYER_ASSIGNMENT (  '', '', ( #984 ) ) ;
#50 = DIRECTION ( 'NONE',  ( -1.000000000000000000, 0.0000000000000000000, 0.0000000000000000000 ) ) ;
#51 = FILL_AREA_STYLE ('',( #835 ) ) ;
#52 = ORIENTED_EDGE ( 'NONE', *, *, #624, .F. ) ;
#53 = FACE_OUTER_BOUND ( 'NONE', #686, .T. ) ;
#54 = SURFACE_SIDE_STYLE ('',( #843 ) ) ;
#55 = VERTEX_POINT ( 'NONE', #273 ) ;
#56 = SURFACE_STYLE_USAGE ( .BOTH. , #408 ) ;
#57 = SURFACE_STYLE_USAGE ( .BOTH. , #130 ) ;
#58 = VECTOR ( 'NONE', #799, 1000.000000000000000 ) ;
#59 = COLOUR_RGB ( '',0.9764705882352940902, 0.9764705882352940902, 0.9764705882352940902 ) ;
#60 = CYLINDRICAL_SURFACE ( 'NONE', #774, 0.5999999999999999778 ) ;
#61 = COLOUR_RGB ( '',0.9764705882352940902, 0.9764705882352940902, 0.9764705882352940902 ) ;
#62 = ORIENTED_EDGE ( 'NONE', *, *, #748, .F. ) ;
#63 = AXIS2_PLACEMENT_3D ( 'NONE', #343, #1047, #961 ) ;
#64 = CARTESIAN_POINT ( 'NONE',  ( 2.399999999999999911, -4.599999999999999645, 0.8000000000000000444 ) ) ;
#65 = COLOUR_RGB ( '',0.9764705882352940902, 0.9764705882352940902, 0.9764705882352940902 ) ;
#66 = LINE ( 'NONE', #363, #391 ) ;
#67 = FACE_OUTER_BOUND ( 'NONE', #809, .T. ) ;
#68 = CARTESIAN_POINT ( 'NONE',  ( -3.149999999999990141, -10.30000000000000071, 0.0000000000000000000 ) ) ;
#69 = EDGE_CURVE ( 'NONE', #162, #902, #741, .T. ) ;
#70 =( NAMED_UNIT ( * ) SI_UNIT ( $, .STERADIAN. ) SOLID_ANGLE_UNIT ( ) );
#71 = ORIENTED_EDGE ( 'NONE', *, *, #1002, .T. ) ;
#72 = SURFACE_STYLE_USAGE ( .BOTH. , #17 ) ;
#73 = DIRECTION ( 'NONE',  ( -1.000000000000000000, -0.0000000000000000000, -0.0000000000000000000 ) ) ;
#74 = EDGE_LOOP ( 'NONE', ( #861, #815, #702, #448 ) ) ;
#75 = LINE ( 'NONE', #64, #909 ) ;
#76 = CARTESIAN_POINT ( 'NONE',  ( -2.399999999999999911, -10.30000000000000071, 0.8000000000000000444 ) ) ;
#77 = VERTEX_POINT ( 'NONE', #983 ) ;
#78 = FILL_AREA_STYLE ('',( #1041 ) ) ;
#79 = SURFACE_STYLE_FILL_AREA ( #871 ) ;
#80 = STYLED_ITEM ( 'NONE', ( #1038 ), #109 ) ;
#81 = ORIENTED_EDGE ( 'NONE', *, *, #819, .F. ) ;
#82 = AXIS2_PLACEMENT_3D ( 'NONE', #987, #722, #368 ) ;
#83 = ADVANCED_FACE ( 'NONE', ( #190 ), #655, .T. ) ;
#84 = ADVANCED_FACE ( 'NONE', ( #1095 ), #60, .F. ) ;
#85 = CARTESIAN_POINT ( 'NONE',  ( -0.6000000000000016431, 0.0000000000000000000, 0.8000000000000000444 ) ) ;
#86 = EDGE_LOOP ( 'NONE', ( #407, #775, #602, #972 ) ) ;
#87 = COLOUR_RGB ( '',0.9764705882352940902, 0.9764705882352940902, 0.9764705882352940902 ) ;
#88 =( LENGTH_UNIT ( ) NAMED_UNIT ( * ) SI_UNIT ( .MILLI., .METRE. ) );
#89 = LINE ( 'NONE', #691, #870 ) ;
#90 = MECHANICAL_DESIGN_GEOMETRIC_PRESENTATION_REPRESENTATION (  '', ( #108 ), #677 ) ;
#91 = EDGE_LOOP ( 'NONE', ( #866, #940, #957, #355, #859, #434, #522, #877, #735, #282, #586, #158, #912, #608, #311, #904 ) ) ;
#92 = CARTESIAN_POINT ( 'NONE',  ( 2.400000000000000355, -4.599999999999999645, 0.8000000000000000444 ) ) ;
#93 = ADVANCED_FACE ( 'NONE', ( #43 ), #1013, .T. ) ;
#94 = EDGE_CURVE ( 'NONE', #596, #1105, #248, .T. ) ;
#95 = DIRECTION ( 'NONE',  ( 0.0000000000000000000, 0.0000000000000000000, -1.000000000000000000 ) ) ;
#96 = LINE ( 'NONE', #254, #490 ) ;
#97 = CARTESIAN_POINT ( 'NONE',  ( -2.399999999999999911, -4.599999999999999645, 0.8000000000000000444 ) ) ;
#98 = PRESENTATION_STYLE_ASSIGNMENT (( #72 ) ) ;
#99 = CARTESIAN_POINT ( 'NONE',  ( 2.650000000000010125, -10.80000000000000071, 0.8000000000000000444 ) ) ;
#100 = EDGE_CURVE ( 'NONE', #795, #256, #1027, .T. ) ;
#101 =( LENGTH_UNIT ( ) NAMED_UNIT ( * ) SI_UNIT ( .MILLI., .METRE. ) );
#102 = VERTEX_POINT ( 'NONE', #439 ) ;
#103 = SURFACE_SIDE_STYLE ('',( #886 ) ) ;
#104 = MECHANICAL_DESIGN_GEOMETRIC_PRESENTATION_REPRESENTATION (  '', ( #888 ), #1028 ) ;
#105 = CARTESIAN_POINT ( 'NONE',  ( 3.150000000000010125, -4.599999999999999645, 0.0000000000000000000 ) ) ;
#106 = AXIS2_PLACEMENT_3D ( 'NONE', #887, #543, #348 ) ;
#107 = STYLED_ITEM ( 'NONE', ( #98 ), #1116 ) ;
#108 = STYLED_ITEM ( 'NONE', ( #767 ), #396 ) ;
#109 = ADVANCED_FACE ( 'NONE', ( #160 ), #880, .F. ) ;
#110 = CARTESIAN_POINT ( 'NONE',  ( -2.135449797636580271, -10.31499325455281735, -3.252606517456513302E-16 ) ) ;
#111 = FACE_OUTER_BOUND ( 'NONE', #1098, .T. ) ;
#112 = CARTESIAN_POINT ( 'NONE',  ( -2.135449797636579827, -10.31499325455279958, 0.8000000000000000444 ) ) ;
#113 = DIRECTION ( 'NONE',  ( 1.000000000000000000, 0.0000000000000000000, 0.0000000000000000000 ) ) ;
#114 = FILL_AREA_STYLE ('',( #808 ) ) ;
#115 = DIRECTION ( 'NONE',  ( 0.0000000000000000000, -0.0000000000000000000, 1.000000000000000000 ) ) ;
#116 = ORIENTED_EDGE ( 'NONE', *, *, #629, .T. ) ;
#117 = PRESENTATION_LAYER_ASSIGNMENT (  '', '', ( #654 ) ) ;
#118 = ORIENTED_EDGE ( 'NONE', *, *, #264, .T. ) ;
#119 =( NAMED_UNIT ( * ) SI_UNIT ( $, .STERADIAN. ) SOLID_ANGLE_UNIT ( ) );
#120 =( GEOMETRIC_REPRESENTATION_CONTEXT ( 3 ) GLOBAL_UNCERTAINTY_ASSIGNED_CONTEXT ( ( #728 ) ) GLOBAL_UNIT_ASSIGNED_CONTEXT ( ( #1112, #685, #510 ) ) REPRESENTATION_CONTEXT ( 'NONE', 'WORKASPACE' ) );
#121 = CARTESIAN_POINT ( 'NONE',  ( 2.399999999999999467, 2.199999999999999734, 1.084202172485504434E-16 ) ) ;
#122 = SURFACE_STYLE_FILL_AREA ( #462 ) ;
#123 = VERTEX_POINT ( 'NONE', #12 ) ;
#124 = CIRCLE ( 'NONE', #533, 0.5000000000000000000 ) ;
#125 = DIRECTION ( 'NONE',  ( 1.000000000000000000, 0.0000000000000000000, 0.0000000000000000000 ) ) ;
#126 = EDGE_CURVE ( 'NONE', #763, #319, #770, .T. ) ;
#127 =( LENGTH_UNIT ( ) NAMED_UNIT ( * ) SI_UNIT ( .MILLI., .METRE. ) );
#128 = ORIENTED_EDGE ( 'NONE', *, *, #263, .F. ) ;
#129 = UNCERTAINTY_MEASURE_WITH_UNIT (LENGTH_MEASURE( 1.000000000000000082E-05 ), #323, 'distance_accuracy_value', 'NONE');
#130 = SURFACE_SIDE_STYLE ('',( #1019 ) ) ;
#131 = VECTOR ( 'NONE', #641, 1000.000000000000000 ) ;
#132 = EDGE_LOOP ( 'NONE', ( #385, #802 ) ) ;
#133 = AXIS2_PLACEMENT_3D ( 'NONE', #480, #666, #50 ) ;
#134 = SURFACE_STYLE_FILL_AREA ( #1021 ) ;
#135 = UNCERTAINTY_MEASURE_WITH_UNIT (LENGTH_MEASURE( 1.000000000000000082E-05 ), #754, 'distance_accuracy_value', 'NONE');
#136 =( GEOMETRIC_REPRESENTATION_CONTEXT ( 3 ) GLOBAL_UNCERTAINTY_ASSIGNED_CONTEXT ( ( #807 ) ) GLOBAL_UNIT_ASSIGNED_CONTEXT ( ( #901, #824, #532 ) ) REPRESENTATION_CONTEXT ( 'NONE', 'WORKASPACE' ) );
#137 = VECTOR ( 'NONE', #537, 1000.000000000000114 ) ;
#138 = VERTEX_POINT ( 'NONE', #1072 ) ;
#139 = CARTESIAN_POINT ( 'NONE',  ( -2.649999999999990141, -10.30000000000000071, 0.8000000000000000444 ) ) ;
#140 = DIRECTION ( 'NONE',  ( 0.0000000000000000000, -0.0000000000000000000, 1.000000000000000000 ) ) ;
#141 = ORIENTED_EDGE ( 'NONE', *, *, #786, .F. ) ;
#142 = FILL_AREA_STYLE ('',( #761 ) ) ;
#143 = CARTESIAN_POINT ( 'NONE',  ( -3.149999999999995026, -10.30000000000000071, 0.8000000000000000444 ) ) ;
#144 = DIRECTION ( 'NONE',  ( 0.0000000000000000000, -0.9659258262890680902, 0.2588190451025210170 ) ) ;
#145 = EDGE_CURVE ( 'NONE', #902, #319, #905, .T. ) ;
#146 = DIRECTION ( 'NONE',  ( 0.0000000000000000000, 0.0000000000000000000, -1.000000000000000000 ) ) ;
#147 = FACE_OUTER_BOUND ( 'NONE', #335, .T. ) ;
#148 =( GEOMETRIC_REPRESENTATION_CONTEXT ( 3 ) GLOBAL_UNCERTAINTY_ASSIGNED_CONTEXT ( ( #483 ) ) GLOBAL_UNIT_ASSIGNED_CONTEXT ( ( #944, #353, #780 ) ) REPRESENTATION_CONTEXT ( 'NONE', 'WORKASPACE' ) );
#149 = VECTOR ( 'NONE', #1004, 1000.000000000000000 ) ;
#150 = PRESENTATION_LAYER_ASSIGNMENT (  '', '', ( #548 ) ) ;
#151 = ORIENTED_EDGE ( 'NONE', *, *, #497, .F. ) ;
#152 = STYLED_ITEM ( 'NONE', ( #757 ), #657 ) ;
#153 = COLOUR_RGB ( '',0.9764705882352940902, 0.9764705882352940902, 0.9764705882352940902 ) ;
#154 =( LENGTH_UNIT ( ) NAMED_UNIT ( * ) SI_UNIT ( .MILLI., .METRE. ) );
#155 = DIRECTION ( 'NONE',  ( 1.000000000000000000, 0.0000000000000000000, -0.0000000000000000000 ) ) ;
#156 = LINE ( 'NONE', #701, #291 ) ;
#157 = SURFACE_STYLE_USAGE ( .BOTH. , #419 ) ;
#158 = ORIENTED_EDGE ( 'NONE', *, *, #497, .T. ) ;
#159 =( LENGTH_UNIT ( ) NAMED_UNIT ( * ) SI_UNIT ( .MILLI., .METRE. ) );
#160 = FACE_OUTER_BOUND ( 'NONE', #745, .T. ) ;
#161 =( NAMED_UNIT ( * ) PLANE_ANGLE_UNIT ( ) SI_UNIT ( $, .RADIAN. ) );
#162 = VERTEX_POINT ( 'NONE', #551 ) ;
#163 = COLOUR_RGB ( '',0.9764705882352940902, 0.9764705882352940902, 0.9764705882352940902 ) ;
#164 = FILL_AREA_STYLE ('',( #951 ) ) ;
#165 = SURFACE_STYLE_USAGE ( .BOTH. , #1061 ) ;
#166 = VECTOR ( 'NONE', #234, 1000.000000000000000 ) ;
#167 = EDGE_CURVE ( 'NONE', #844, #924, #364, .T. ) ;
#168 = ADVANCED_FACE ( 'NONE', ( #542 ), #733, .F. ) ;
#169 = VECTOR ( 'NONE', #1055, 1000.000000000000114 ) ;
#170 = CARTESIAN_POINT ( 'NONE',  ( -2.635224949397759975, -10.30000000000000071, 0.8000000000000000444 ) ) ;
#171 = PRESENTATION_LAYER_ASSIGNMENT (  '', '', ( #375 ) ) ;
#172 = CARTESIAN_POINT ( 'NONE',  ( 0.5999999999999982014, 7.347880794884117764E-17, 1.084202172485499997E-16 ) ) ;
#173 = PRESENTATION_LAYER_ASSIGNMENT (  '', '', ( #376 ) ) ;
#174 = PLANE ( 'NONE',  #486 ) ;
#175 = PRESENTATION_LAYER_ASSIGNMENT (  '', '', ( #107 ) ) ;
#176 = CARTESIAN_POINT ( 'NONE',  ( 2.650000000000010125, -10.80000000000000071, 0.0000000000000000000 ) ) ;
#177 = ORIENTED_EDGE ( 'NONE', *, *, #710, .T. ) ;
#178 = SURFACE_STYLE_USAGE ( .BOTH. , #346 ) ;
#179 = CARTESIAN_POINT ( 'NONE',  ( -1.750000000000000000, 3.000000000000000444, 0.2143593539448990226 ) ) ;
#180 = DIRECTION ( 'NONE',  ( 1.000000000000000000, 0.0000000000000000000, 0.0000000000000000000 ) ) ;
#181 = EDGE_CURVE ( 'NONE', #764, #954, #360, .T. ) ;
#182 = DIRECTION ( 'NONE',  ( 0.0000000000000000000, -0.0000000000000000000, 1.000000000000000000 ) ) ;
#183 = DIRECTION ( 'NONE',  ( -1.000000000000000000, 0.0000000000000000000, 0.0000000000000000000 ) ) ;
#184 = CARTESIAN_POINT ( 'NONE',  ( 1.749999999999999778, 3.000000000000000444, 0.5856406460551014659 ) ) ;
#185 = SURFACE_STYLE_FILL_AREA ( #459 ) ;
#186 = SURFACE_STYLE_FILL_AREA ( #631 ) ;
#187 = MECHANICAL_DESIGN_GEOMETRIC_PRESENTATION_REPRESENTATION (  '', ( #984 ), #406 ) ;
#188 = FACE_OUTER_BOUND ( 'NONE', #627, .T. ) ;
#189 = CARTESIAN_POINT ( 'NONE',  ( 2.951287929591360050E-15, -5.799999999999999822, 0.8000000000000000444 ) ) ;
#190 = FACE_OUTER_BOUND ( 'NONE', #1045, .T. ) ;
#191 = PRESENTATION_STYLE_ASSIGNMENT (( #986 ) ) ;
#192 = APPLICATION_PROTOCOL_DEFINITION ( 'draft international standard', 'automotive_design', 1998, #916 ) ;
#193 = SURFACE_STYLE_USAGE ( .BOTH. , #737 ) ;
#194 = EDGE_CURVE ( 'NONE', #102, #123, #377, .T. ) ;
#195 = DIRECTION ( 'NONE',  ( 0.0000000000000000000, 0.0000000000000000000, 1.000000000000000000 ) ) ;
#196 = ORIENTED_EDGE ( 'NONE', *, *, #1011, .T. ) ;
#197 = ORIENTED_EDGE ( 'NONE', *, *, #825, .T. ) ;
#198 = DIRECTION ( 'NONE',  ( 1.000000000000000000, 0.0000000000000000000, 0.0000000000000000000 ) ) ;
#199 = EDGE_CURVE ( 'NONE', #55, #763, #270, .T. ) ;
#200 = ADVANCED_FACE ( 'NONE', ( #188 ), #890, .F. ) ;
#201 = PRESENTATION_LAYER_ASSIGNMENT (  '', '', ( #1127 ) ) ;
#202 = STYLED_ITEM ( 'NONE', ( #572 ), #647 ) ;
#203 = LINE ( 'NONE', #293, #215 ) ;
#204 = FACE_OUTER_BOUND ( 'NONE', #285, .T. ) ;
#205 = ORIENTED_EDGE ( 'NONE', *, *, #476, .T. ) ;
#206 = PRODUCT_DEFINITION_SHAPE ( 'NONE', 'NONE',  #283 ) ;
#207 = SURFACE_STYLE_USAGE ( .BOTH. , #1001 ) ;
#208 = CARTESIAN_POINT ( 'NONE',  ( 2.635224949397770189, -10.30000000000000071, 0.8000000000000000444 ) ) ;
#209 = CARTESIAN_POINT ( 'NONE',  ( -2.649999999999990141, 2.200000000000000622, 0.0000000000000000000 ) ) ;
#210 = DIRECTION ( 'NONE',  ( -0.02998650910567149039, 0.9995503035223666233, 0.0000000000000000000 ) ) ;
#211 = SURFACE_SIDE_STYLE ('',( #134 ) ) ;
#212 = SURFACE_STYLE_USAGE ( .BOTH. , #667 ) ;
#213 = STYLED_ITEM ( 'NONE', ( #885 ), #168 ) ;
#214 = DIRECTION ( 'NONE',  ( -1.000000000000000000, 0.0000000000000000000, 0.0000000000000000000 ) ) ;
#215 = VECTOR ( 'NONE', #574, 1000.000000000000000 ) ;
#216 = AXIS2_PLACEMENT_3D ( 'NONE', #170, #534, #312 ) ;
#217 = FILL_AREA_STYLE_COLOUR ( '', #1093 ) ;
#218 = MECHANICAL_DESIGN_GEOMETRIC_PRESENTATION_REPRESENTATION (  '', ( #152 ), #1080 ) ;
#219 = AXIS2_PLACEMENT_3D ( 'NONE', #579, #668, #155 ) ;
#220 = EDGE_LOOP ( 'NONE', ( #646, #688, #1125, #1130 ) ) ;
#221 = CARTESIAN_POINT ( 'NONE',  ( -1.750000000000000000, 3.000000000000000000, 0.8000000000000000444 ) ) ;
#222 = SURFACE_SIDE_STYLE ('',( #935 ) ) ;
#223 = ORIENTED_EDGE ( 'NONE', *, *, #1002, .F. ) ;
#224 = PLANE ( 'NONE',  #1106 ) ;
#225 = CARTESIAN_POINT ( 'NONE',  ( 2.000000000000000000, -5.799999999999999822, -4.336808689942017736E-16 ) ) ;
#226 = CARTESIAN_POINT ( 'NONE',  ( 3.469446951953609850E-15, 2.200000000000000178, 0.0000000000000000000 ) ) ;
#227 = VERTEX_POINT ( 'NONE', #762 ) ;
#228 = CARTESIAN_POINT ( 'NONE',  ( -2.649999999999990141, -10.80000000000000071, 0.8000000000000000444 ) ) ;
#229 = EDGE_CURVE ( 'NONE', #535, #300, #203, .T. ) ;
#230 = FILL_AREA_STYLE ('',( #931 ) ) ;
#231 = UNCERTAINTY_MEASURE_WITH_UNIT (LENGTH_MEASURE( 1.000000000000000082E-05 ), #154, 'distance_accuracy_value', 'NONE');
#232 = CARTESIAN_POINT ( 'NONE',  ( -2.399999999999999911, 2.200000000000000178, 0.8000000000000000444 ) ) ;
#233 = COLOUR_RGB ( '',0.9764705882352940902, 0.9764705882352940902, 0.9764705882352940902 ) ;
#234 = DIRECTION ( 'NONE',  ( -0.0000000000000000000, -0.0000000000000000000, -1.000000000000000000 ) ) ;
#235 = EDGE_LOOP ( 'NONE', ( #205, #412, #756, #1081 ) ) ;
#236 = FILL_AREA_STYLE ('',( #1118 ) ) ;
#237 = VECTOR ( 'NONE', #73, 1000.000000000000000 ) ;
#238 = DIRECTION ( 'NONE',  ( -0.6173839229187519928, 0.7598571359000028114, -0.2036031059274317767 ) ) ;
#239 = SURFACE_STYLE_USAGE ( .BOTH. , #436 ) ;
#240 =( NAMED_UNIT ( * ) SI_UNIT ( $, .STERADIAN. ) SOLID_ANGLE_UNIT ( ) );
#241 = CARTESIAN_POINT ( 'NONE',  ( -2.399999999999999467, 2.200000000000000178, 1.355252715606880543E-17 ) ) ;
#242 =( NAMED_UNIT ( * ) SI_UNIT ( $, .STERADIAN. ) SOLID_ANGLE_UNIT ( ) );
#243 = CARTESIAN_POINT ( 'NONE',  ( -3.149999999999990141, -10.30000000000000071, 0.8000000000000000444 ) ) ;
#244 = ORIENTED_EDGE ( 'NONE', *, *, #943, .T. ) ;
#245 = ORIENTED_EDGE ( 'NONE', *, *, #410, .F. ) ;
#246 = CARTESIAN_POINT ( 'NONE',  ( -0.6000000000000016431, 0.0000000000000000000, 1.084202172485499997E-16 ) ) ;
#247 = PRESENTATION_STYLE_ASSIGNMENT (( #529 ) ) ;
#248 = LINE ( 'NONE', #515, #959 ) ;
#249 = ORIENTED_EDGE ( 'NONE', *, *, #10, .F. ) ;
#250 = DIRECTION ( 'NONE',  ( 0.0000000000000000000, 1.000000000000000000, 0.0000000000000000000 ) ) ;
#251 =( LENGTH_UNIT ( ) NAMED_UNIT ( * ) SI_UNIT ( .MILLI., .METRE. ) );
#252 = ORIENTED_EDGE ( 'NONE', *, *, #194, .F. ) ;
#253 = SURFACE_SIDE_STYLE ('',( #1134 ) ) ;
#254 = CARTESIAN_POINT ( 'NONE',  ( -2.635224949397759975, -10.80000000000000071, 0.8000000000000000444 ) ) ;
#255 = VECTOR ( 'NONE', #238, 1000.000000000000114 ) ;
#256 = VERTEX_POINT ( 'NONE', #68 ) ;
#257 = LINE ( 'NONE', #967, #922 ) ;
#258 =( GEOMETRIC_REPRESENTATION_CONTEXT ( 3 ) GLOBAL_UNCERTAINTY_ASSIGNED_CONTEXT ( ( #525 ) ) GLOBAL_UNIT_ASSIGNED_CONTEXT ( ( #29, #567, #1096 ) ) REPRESENTATION_CONTEXT ( 'NONE', 'WORKASPACE' ) );
#259 = CARTESIAN_POINT ( 'NONE',  ( -2.649999999999990141, -10.80000000000000071, 0.0000000000000000000 ) ) ;
#260 = APPLICATION_PROTOCOL_DEFINITION ( 'draft international standard', 'automotive_design', 1998, #314 ) ;
#261 = LINE ( 'NONE', #176, #873 ) ;
#262 = FILL_AREA_STYLE_COLOUR ( '', #357 ) ;
#263 = EDGE_CURVE ( 'NONE', #763, #138, #156, .T. ) ;
#264 = EDGE_CURVE ( 'NONE', #398, #479, #438, .T. ) ;
#265 = DIRECTION ( 'NONE',  ( -0.0000000000000000000, -0.0000000000000000000, 1.000000000000000000 ) ) ;
#266 =( NAMED_UNIT ( * ) PLANE_ANGLE_UNIT ( ) SI_UNIT ( $, .RADIAN. ) );
#267 =( NAMED_UNIT ( * ) PLANE_ANGLE_UNIT ( ) SI_UNIT ( $, .RADIAN. ) );
#268 = LINE ( 'NONE', #367, #16 ) ;
#269 = FILL_AREA_STYLE_COLOUR ( '', #676 ) ;
#270 = LINE ( 'NONE', #632, #372 ) ;
#271 = LINE ( 'NONE', #552, #891 ) ;
#272 = AXIS2_PLACEMENT_3D ( 'NONE', #563, #892, #125 ) ;
#273 = CARTESIAN_POINT ( 'NONE',  ( -3.149999999999993250, -4.599999999999999645, 0.0000000000000000000 ) ) ;
#274 = COLOUR_RGB ( '',0.9764705882352940902, 0.9764705882352940902, 0.9764705882352940902 ) ;
#275 = FILL_AREA_STYLE ('',( #806 ) ) ;
#276 = FACE_OUTER_BOUND ( 'NONE', #1014, .T. ) ;
#277 = ADVANCED_FACE ( 'NONE', ( #147 ), #174, .F. ) ;
#278 = CARTESIAN_POINT ( 'NONE',  ( -2.399999999999999911, -4.599999999999999645, 0.0000000000000000000 ) ) ;
#279 = ORIENTED_EDGE ( 'NONE', *, *, #925, .F. ) ;
#280 = LINE ( 'NONE', #810, #833 ) ;
#281 = FILL_AREA_STYLE ('',( #455 ) ) ;
#282 = ORIENTED_EDGE ( 'NONE', *, *, #800, .T. ) ;
#283 = PRODUCT_DEFINITION ( 'UNKNOWN', '', #985, #48 ) ;
#284 = CARTESIAN_POINT ( 'NONE',  ( 0.5999999999999982014, 7.347880794884117764E-17, 0.8000000000000000444 ) ) ;
#285 = EDGE_LOOP ( 'NONE', ( #141, #753, #930, #223 ) ) ;
#286 = SURFACE_SIDE_STYLE ('',( #122 ) ) ;
#287 = FILL_AREA_STYLE_COLOUR ( '', #163 ) ;
#288 = EDGE_CURVE ( 'NONE', #138, #227, #878, .T. ) ;
#289 = CARTESIAN_POINT ( 'NONE',  ( -2.649999999999990141, 2.200000000000000622, 0.8000000000000000444 ) ) ;
#290 =( GEOMETRIC_REPRESENTATION_CONTEXT ( 3 ) GLOBAL_UNCERTAINTY_ASSIGNED_CONTEXT ( ( #437 ) ) GLOBAL_UNIT_ASSIGNED_CONTEXT ( ( #585, #1008, #576 ) ) REPRESENTATION_CONTEXT ( 'NONE', 'WORKASPACE' ) );
#291 = VECTOR ( 'NONE', #320, 1000.000000000000000 ) ;
#292 = PRESENTATION_LAYER_ASSIGNMENT (  '', '', ( #580 ) ) ;
#293 = CARTESIAN_POINT ( 'NONE',  ( -2.649999999999990141, -10.80000000000000071, 0.8000000000000000444 ) ) ;
#294 = ORIENTED_EDGE ( 'NONE', *, *, #442, .T. ) ;
#295 = CIRCLE ( 'NONE', #639, 0.5000000000000000000 ) ;
#296 = FILL_AREA_STYLE ('',( #397 ) ) ;
#297 = EDGE_CURVE ( 'NONE', #500, #844, #832, .T. ) ;
#298 = EDGE_CURVE ( 'NONE', #123, #379, #598, .T. ) ;
#299 = CYLINDRICAL_SURFACE ( 'NONE', #530, 0.5999999999999999778 ) ;
#300 = VERTEX_POINT ( 'NONE', #934 ) ;
#301 = DIRECTION ( 'NONE',  ( -1.000000000000000000, 0.0000000000000000000, 0.0000000000000000000 ) ) ;
#302 = ORIENTED_EDGE ( 'NONE', *, *, #854, .F. ) ;
#303 = COLOUR_RGB ( '',0.9764705882352940902, 0.9764705882352940902, 0.9764705882352940902 ) ;
#304 = PRESENTATION_LAYER_ASSIGNMENT (  '', '', ( #1104 ) ) ;
#305 = SURFACE_SIDE_STYLE ('',( #1114 ) ) ;
#306 = DIRECTION ( 'NONE',  ( -0.9995503035223668453, 0.02998650910567040098, 0.0000000000000000000 ) ) ;
#307 = COLOUR_RGB ( '',0.9764705882352940902, 0.9764705882352940902, 0.9764705882352940902 ) ;
#308 = STYLED_ITEM ( 'NONE', ( #695 ), #732 ) ;
#309 = PRESENTATION_STYLE_ASSIGNMENT (( #755 ) ) ;
#310 = CIRCLE ( 'NONE', #19, 0.5999999999999999778 ) ;
#311 = ORIENTED_EDGE ( 'NONE', *, *, #2, .T. ) ;
#312 = DIRECTION ( 'NONE',  ( 1.000000000000000000, 0.0000000000000000000, 0.0000000000000000000 ) ) ;
#313 = PLANE ( 'NONE',  #219 ) ;
#314 = APPLICATION_CONTEXT ( 'automotive_design' ) ;
#315 = DIRECTION ( 'NONE',  ( 0.0000000000000000000, 0.2588190451025210725, -0.9659258262890682012 ) ) ;
#316 = EDGE_CURVE ( 'NONE', #472, #431, #9, .T. ) ;
#317 = VERTEX_POINT ( 'NONE', #942 ) ;
#318 = DIRECTION ( 'NONE',  ( 0.0000000000000000000, 0.0000000000000000000, 1.000000000000000000 ) ) ;
#319 = VERTEX_POINT ( 'NONE', #241 ) ;
#320 = DIRECTION ( 'NONE',  ( -0.0000000000000000000, 0.0000000000000000000, 1.000000000000000000 ) ) ;
#321 = CARTESIAN_POINT ( 'NONE',  ( 2.650000000000010125, -10.30000000000000071, 0.8000000000000000444 ) ) ;
#322 = ORIENTED_EDGE ( 'NONE', *, *, #69, .T. ) ;
#323 =( LENGTH_UNIT ( ) NAMED_UNIT ( * ) SI_UNIT ( .MILLI., .METRE. ) );
#324 = PRESENTATION_STYLE_ASSIGNMENT (( #56 ) ) ;
#325 = ORIENTED_EDGE ( 'NONE', *, *, #545, .F. ) ;
#326 =( LENGTH_UNIT ( ) NAMED_UNIT ( * ) SI_UNIT ( .MILLI., .METRE. ) );
#327 = CARTESIAN_POINT ( 'NONE',  ( 3.150000000000009681, -10.30000000000000071, 0.8000000000000000444 ) ) ;
#328 = PRESENTATION_LAYER_ASSIGNMENT (  '', '', ( #213 ) ) ;
#329 = DIRECTION ( 'NONE',  ( -0.0000000000000000000, -1.000000000000000000, 0.0000000000000000000 ) ) ;
#330 =( GEOMETRIC_REPRESENTATION_CONTEXT ( 3 ) GLOBAL_UNCERTAINTY_ASSIGNED_CONTEXT ( ( #969 ) ) GLOBAL_UNIT_ASSIGNED_CONTEXT ( ( #895, #266, #498 ) ) REPRESENTATION_CONTEXT ( 'NONE', 'WORKASPACE' ) );
#331 = DIRECTION ( 'NONE',  ( 0.0000000000000000000, 0.0000000000000000000, -1.000000000000000000 ) ) ;
#332 = PRESENTATION_LAYER_ASSIGNMENT (  '', '', ( #616 ) ) ;
#333 = STYLED_ITEM ( 'NONE', ( #994 ), #751 ) ;
#334 = AXIS2_PLACEMENT_3D ( 'NONE', #823, #718, #899 ) ;
#335 = EDGE_LOOP ( 'NONE', ( #516, #1063, #62, #347 ) ) ;
#336 = DIRECTION ( 'NONE',  ( -0.6305926250944651201, 0.7761140001162660784, 0.0000000000000000000 ) ) ;
#337 = SURFACE_STYLE_USAGE ( .BOTH. , #253 ) ;
#338 = CARTESIAN_POINT ( 'NONE',  ( 2.400000000000000355, -10.30000000000000071, 0.8000000000000000444 ) ) ;
#339 =( NAMED_UNIT ( * ) SI_UNIT ( $, .STERADIAN. ) SOLID_ANGLE_UNIT ( ) );
#340 = EDGE_LOOP ( 'NONE', ( #1086, #1100, #196, #997 ) ) ;
#341 =( NAMED_UNIT ( * ) PLANE_ANGLE_UNIT ( ) SI_UNIT ( $, .RADIAN. ) );
#342 = CARTESIAN_POINT ( 'NONE',  ( 2.000000000000000000, -5.799999999999999822, 0.8000000000000000444 ) ) ;
#343 = CARTESIAN_POINT ( 'NONE',  ( -2.649999999999990141, -10.30000000000000071, 0.8000000000000000444 ) ) ;
#344 = UNCERTAINTY_MEASURE_WITH_UNIT (LENGTH_MEASURE( 1.000000000000000082E-05 ), #681, 'distance_accuracy_value', 'NONE');
#345 = VERTEX_POINT ( 'NONE', #423 ) ;
#346 = SURFACE_SIDE_STYLE ('',( #963 ) ) ;
#347 = ORIENTED_EDGE ( 'NONE', *, *, #126, .F. ) ;
#348 = DIRECTION ( 'NONE',  ( 1.000000000000000000, 0.0000000000000000000, 0.0000000000000000000 ) ) ;
#349 = SURFACE_STYLE_FILL_AREA ( #1032 ) ;
#350 = ORIENTED_EDGE ( 'NONE', *, *, #540, .T. ) ;
#351 = PRESENTATION_STYLE_ASSIGNMENT (( #337 ) ) ;
#352 = DIRECTION ( 'NONE',  ( 0.02998650910567006098, 0.9995503035223666233, 0.0000000000000000000 ) ) ;
#353 =( NAMED_UNIT ( * ) PLANE_ANGLE_UNIT ( ) SI_UNIT ( $, .RADIAN. ) );
#354 = AXIS2_PLACEMENT_3D ( 'NONE', #226, #315, #747 ) ;
#355 = ORIENTED_EDGE ( 'NONE', *, *, #457, .T. ) ;
#356 = MECHANICAL_DESIGN_GEOMETRIC_PRESENTATION_REPRESENTATION (  '', ( #202 ), #889 ) ;
#357 = COLOUR_RGB ( '',0.9764705882352940902, 0.9764705882352940902, 0.9764705882352940902 ) ;
#358 = AXIS2_PLACEMENT_3D ( 'NONE', #11, #626, #182 ) ;
#359 = DIRECTION ( 'NONE',  ( 0.7761140001162660784, 0.6305926250944651201, -0.0000000000000000000 ) ) ;
#360 = LINE ( 'NONE', #121, #868 ) ;
#361 = DIRECTION ( 'NONE',  ( 0.0000000000000000000, 0.0000000000000000000, 1.000000000000000000 ) ) ;
#362 = LINE ( 'NONE', #716, #427 ) ;
#363 = CARTESIAN_POINT ( 'NONE',  ( 2.135449797636586045, -10.31499325455279958, 0.8000000000000000444 ) ) ;
#364 = LINE ( 'NONE', #461, #58 ) ;
#365 = CARTESIAN_POINT ( 'NONE',  ( 2.399999999999999911, 2.200000000000000178, 0.8000000000000000444 ) ) ;
#366 = UNCERTAINTY_MEASURE_WITH_UNIT (LENGTH_MEASURE( 1.000000000000000082E-05 ), #860, 'distance_accuracy_value', 'NONE');
#367 = CARTESIAN_POINT ( 'NONE',  ( -2.649999999999990141, -10.80000000000000071, 0.0000000000000000000 ) ) ;
#368 = DIRECTION ( 'NONE',  ( 1.000000000000000000, 0.0000000000000000000, -0.0000000000000000000 ) ) ;
#369 = SURFACE_STYLE_FILL_AREA ( #281 ) ;
#370 = LINE ( 'NONE', #456, #31 ) ;
#371 = COLOUR_RGB ( '',0.9764705882352940902, 0.9764705882352940902, 0.9764705882352940902 ) ;
#372 = VECTOR ( 'NONE', #1085, 1000.000000000000000 ) ;
#373 = AXIS2_PLACEMENT_3D ( 'NONE', #208, #487, #573 ) ;
#374 = SURFACE_STYLE_USAGE ( .BOTH. , #1064 ) ;
#375 = STYLED_ITEM ( 'NONE', ( #1121 ), #801 ) ;
#376 = STYLED_ITEM ( 'NONE', ( #247 ), #915 ) ;
#377 = LINE ( 'NONE', #981, #131 ) ;
#378 = EDGE_LOOP ( 'NONE', ( #249, #197, #908, #788 ) ) ;
#379 = VERTEX_POINT ( 'NONE', #528 ) ;
#380 = SURFACE_STYLE_FILL_AREA ( #33 ) ;
#381 = CARTESIAN_POINT ( 'NONE',  ( 2.635224949397770189, -10.80000000000000071, 0.0000000000000000000 ) ) ;
#382 = PRODUCT_CONTEXT ( 'NONE', #314, 'mechanical' ) ;
#383 = FILL_AREA_STYLE_COLOUR ( '', #966 ) ;
#384 = DIRECTION ( 'NONE',  ( -0.6173839229187515487, 0.7598571359000031444, 0.2036031059274322763 ) ) ;
#385 = ORIENTED_EDGE ( 'NONE', *, *, #624, .T. ) ;
#386 = ORIENTED_EDGE ( 'NONE', *, *, #990, .F. ) ;
#387 = EDGE_CURVE ( 'NONE', #954, #559, #89, .T. ) ;
#388 = CIRCLE ( 'NONE', #272, 0.5000000000000000000 ) ;
#389 = VECTOR ( 'NONE', #1036, 1000.000000000000000 ) ;
#390 = FACE_OUTER_BOUND ( 'NONE', #948, .T. ) ;
#391 = VECTOR ( 'NONE', #1068, 1000.000000000000000 ) ;
#392 = VECTOR ( 'NONE', #329, 1000.000000000000000 ) ;
#393 =( GEOMETRIC_REPRESENTATION_CONTEXT ( 3 ) GLOBAL_UNCERTAINTY_ASSIGNED_CONTEXT ( ( #366 ) ) GLOBAL_UNIT_ASSIGNED_CONTEXT ( ( #860, #881, #864 ) ) REPRESENTATION_CONTEXT ( 'NONE', 'WORKASPACE' ) );
#394 = LINE ( 'NONE', #481, #149 ) ;
#395 =( LENGTH_UNIT ( ) NAMED_UNIT ( * ) SI_UNIT ( .MILLI., .METRE. ) );
#396 = ADVANCED_BREP_SHAPE_REPRESENTATION ( '00D044B3-B273-4A4A-B127-AA5B5EA364E7', ( #1048, #782 ), #393 ) ;
#397 = FILL_AREA_STYLE_COLOUR ( '', #274 ) ;
#398 = VERTEX_POINT ( 'NONE', #1051 ) ;
#399 = FILL_AREA_STYLE ('',( #926 ) ) ;
#400 = PRESENTATION_LAYER_ASSIGNMENT (  '', '', ( #577 ) ) ;
#401 = LINE ( 'NONE', #21, #169 ) ;
#402 = PRESENTATION_LAYER_ASSIGNMENT (  '', '', ( #15 ) ) ;
#403 = ADVANCED_FACE ( 'NONE', ( #789, #950 ), #605, .T. ) ;
#404 = ADVANCED_FACE ( 'NONE', ( #898 ), #1065, .T. ) ;
#405 = VECTOR ( 'NONE', #352, 1000.000000000000114 ) ;
#406 =( GEOMETRIC_REPRESENTATION_CONTEXT ( 3 ) GLOBAL_UNCERTAINTY_ASSIGNED_CONTEXT ( ( #827 ) ) GLOBAL_UNIT_ASSIGNED_CONTEXT ( ( #395, #933, #914 ) ) REPRESENTATION_CONTEXT ( 'NONE', 'WORKASPACE' ) );
#407 = ORIENTED_EDGE ( 'NONE', *, *, #2, .F. ) ;
#408 = SURFACE_SIDE_STYLE ('',( #1119 ) ) ;
#409 = CARTESIAN_POINT ( 'NONE',  ( 3.490130596553060506E-15, 3.000000000000000000, 0.8000000000000000444 ) ) ;
#410 = EDGE_CURVE ( 'NONE', #1, #489, #927, .T. ) ;
#411 = EDGE_CURVE ( 'NONE', #976, #848, #394, .T. ) ;
#412 = ORIENTED_EDGE ( 'NONE', *, *, #831, .F. ) ;
#413 = FACE_OUTER_BOUND ( 'NONE', #235, .T. ) ;
#414 = DIRECTION ( 'NONE',  ( 0.0000000000000000000, -0.0000000000000000000, 1.000000000000000000 ) ) ;
#415 = LINE ( 'NONE', #769, #392 ) ;
#416 = DIRECTION ( 'NONE',  ( 0.0000000000000000000, -0.0000000000000000000, -1.000000000000000000 ) ) ;
#417 = ADVANCED_FACE ( 'NONE', ( #390 ), #299, .F. ) ;
#418 = EDGE_CURVE ( 'NONE', #32, #30, #798, .T. ) ;
#419 = SURFACE_SIDE_STYLE ('',( #946 ) ) ;
#420 =( NAMED_UNIT ( * ) SI_UNIT ( $, .STERADIAN. ) SOLID_ANGLE_UNIT ( ) );
#421 = ORIENTED_EDGE ( 'NONE', *, *, #316, .F. ) ;
#422 = CARTESIAN_POINT ( 'NONE',  ( 1.750000000000000000, 3.000000000000000000, 0.8000000000000000444 ) ) ;
#423 = CARTESIAN_POINT ( 'NONE',  ( -2.135449797636580271, -10.31499325455281735, 0.8000000000000000444 ) ) ;
#424 =( GEOMETRIC_REPRESENTATION_CONTEXT ( 3 ) GLOBAL_UNCERTAINTY_ASSIGNED_CONTEXT ( ( #696 ) ) GLOBAL_UNIT_ASSIGNED_CONTEXT ( ( #499, #687, #339 ) ) REPRESENTATION_CONTEXT ( 'NONE', 'WORKASPACE' ) );
#425 =( NAMED_UNIT ( * ) SI_UNIT ( $, .STERADIAN. ) SOLID_ANGLE_UNIT ( ) );
#426 =( GEOMETRIC_REPRESENTATION_CONTEXT ( 3 ) GLOBAL_UNCERTAINTY_ASSIGNED_CONTEXT ( ( #953 ) ) GLOBAL_UNIT_ASSIGNED_CONTEXT ( ( #513, #1115, #1026 ) ) REPRESENTATION_CONTEXT ( 'NONE', 'WORKASPACE' ) );
#427 = VECTOR ( 'NONE', #711, 1000.000000000000000 ) ;
#428 = STYLED_ITEM ( 'NONE', ( #1097 ), #1102 ) ;
#429 = LINE ( 'NONE', #342, #658 ) ;
#430 =( GEOMETRIC_REPRESENTATION_CONTEXT ( 3 ) GLOBAL_UNCERTAINTY_ASSIGNED_CONTEXT ( ( #663 ) ) GLOBAL_UNIT_ASSIGNED_CONTEXT ( ( #88, #527, #8 ) ) REPRESENTATION_CONTEXT ( 'NONE', 'WORKASPACE' ) );
#431 = VERTEX_POINT ( 'NONE', #939 ) ;
#432 = DIRECTION ( 'NONE',  ( 0.0000000000000000000, 0.0000000000000000000, 1.000000000000000000 ) ) ;
#433 =( NAMED_UNIT ( * ) PLANE_ANGLE_UNIT ( ) SI_UNIT ( $, .RADIAN. ) );
#434 = ORIENTED_EDGE ( 'NONE', *, *, #740, .T. ) ;
#435 = CARTESIAN_POINT ( 'NONE',  ( 2.135449797636586489, -10.31499325455281735, 0.0000000000000000000 ) ) ;
#436 = SURFACE_SIDE_STYLE ('',( #349 ) ) ;
#437 = UNCERTAINTY_MEASURE_WITH_UNIT (LENGTH_MEASURE( 1.000000000000000082E-05 ), #585, 'distance_accuracy_value', 'NONE');
#438 = LINE ( 'NONE', #964, #690 ) ;
#439 = CARTESIAN_POINT ( 'NONE',  ( 3.150000000000010125, -10.30000000000000071, 0.0000000000000000000 ) ) ;
#440 = ORIENTED_EDGE ( 'NONE', *, *, #825, .F. ) ;
#441 = FACE_OUTER_BOUND ( 'NONE', #518, .T. ) ;
#442 = EDGE_CURVE ( 'NONE', #77, #559, #760, .T. ) ;
#443 = LINE ( 'NONE', #544, #237 ) ;
#444 = ADVANCED_FACE ( 'NONE', ( #589 ), #1031, .F. ) ;
#445 =( NAMED_UNIT ( * ) SI_UNIT ( $, .STERADIAN. ) SOLID_ANGLE_UNIT ( ) );
#446 = AXIS2_PLACEMENT_3D ( 'NONE', #97, #794, #416 ) ;
#447 = PRESENTATION_LAYER_ASSIGNMENT (  '', '', ( #937 ) ) ;
#448 = ORIENTED_EDGE ( 'NONE', *, *, #25, .F. ) ;
#449 = VECTOR ( 'NONE', #727, 1000.000000000000000 ) ;
#450 = COLOUR_RGB ( '',0.9764705882352940902, 0.9764705882352940902, 0.9764705882352940902 ) ;
#451 = AXIS2_PLACEMENT_3D ( 'NONE', #422, #359, #336 ) ;
#452 = ORIENTED_EDGE ( 'NONE', *, *, #1011, .F. ) ;
#453 = PLANE ( 'NONE',  #907 ) ;
#454 =( NAMED_UNIT ( * ) PLANE_ANGLE_UNIT ( ) SI_UNIT ( $, .RADIAN. ) );
#455 = FILL_AREA_STYLE_COLOUR ( '', #303 ) ;
#456 = CARTESIAN_POINT ( 'NONE',  ( -3.149999999999999911, -10.30000000000000071, 0.8000000000000000444 ) ) ;
#457 = EDGE_CURVE ( 'NONE', #783, #138, #862, .T. ) ;
#458 = CARTESIAN_POINT ( 'NONE',  ( -2.649999999999990141, -5.799999999999999822, 0.8000000000000000444 ) ) ;
#459 = FILL_AREA_STYLE ('',( #717 ) ) ;
#460 = SURFACE_STYLE_USAGE ( .BOTH. , #550 ) ;
#461 = CARTESIAN_POINT ( 'NONE',  ( 2.635224949397770189, -10.80000000000000071, 0.8000000000000000444 ) ) ;
#462 = FILL_AREA_STYLE ('',( #558 ) ) ;
#463 = ORIENTED_EDGE ( 'NONE', *, *, #476, .F. ) ;
#464 = COLOUR_RGB ( '',0.9764705882352940902, 0.9764705882352940902, 0.9764705882352940902 ) ;
#465 = AXIS2_PLACEMENT_3D ( 'NONE', #1024, #785, #851 ) ;
#466 = DIRECTION ( 'NONE',  ( 0.0000000000000000000, -0.0000000000000000000, 1.000000000000000000 ) ) ;
#467 = VECTOR ( 'NONE', #719, 1000.000000000000000 ) ;
#468 = EDGE_LOOP ( 'NONE', ( #177, #554, #302, #245 ) ) ;
#469 = COLOUR_RGB ( '',0.9764705882352940902, 0.9764705882352940902, 0.9764705882352940902 ) ;
#470 = DIRECTION ( 'NONE',  ( -0.6173839229187515487, -0.7598571359000031444, -0.2036031059274323873 ) ) ;
#471 =( NAMED_UNIT ( * ) SI_UNIT ( $, .STERADIAN. ) SOLID_ANGLE_UNIT ( ) );
#472 = VERTEX_POINT ( 'NONE', #85 ) ;
#473 = CARTESIAN_POINT ( 'NONE',  ( -1.734723475976810250E-15, 0.0000000000000000000, 1.084202172485499997E-16 ) ) ;
#474 = SURFACE_STYLE_USAGE ( .BOTH. , #103 ) ;
#475 = UNCERTAINTY_MEASURE_WITH_UNIT (LENGTH_MEASURE( 1.000000000000000082E-05 ), #159, 'distance_accuracy_value', 'NONE');
#476 = EDGE_CURVE ( 'NONE', #583, #772, #429, .T. ) ;
#477 = CARTESIAN_POINT ( 'NONE',  ( 2.000000000000000444, -5.799999999999999822, 0.8000000000000000444 ) ) ;
#478 = ORIENTED_EDGE ( 'NONE', *, *, #288, .F. ) ;
#479 = VERTEX_POINT ( 'NONE', #611 ) ;
#480 = CARTESIAN_POINT ( 'NONE',  ( -1.734723475976810250E-15, 0.0000000000000000000, 1.084202172485499997E-16 ) ) ;
#481 = CARTESIAN_POINT ( 'NONE',  ( 2.650000000000010125, -10.80000000000000071, 0.8000000000000000444 ) ) ;
#482 = DIRECTION ( 'NONE',  ( 0.0000000000000000000, 0.0000000000000000000, -1.000000000000000000 ) ) ;
#483 = UNCERTAINTY_MEASURE_WITH_UNIT (LENGTH_MEASURE( 1.000000000000000082E-05 ), #944, 'distance_accuracy_value', 'NONE');
#484 =( LENGTH_UNIT ( ) NAMED_UNIT ( * ) SI_UNIT ( .MILLI., .METRE. ) );
#485 = PRESENTATION_LAYER_ASSIGNMENT (  '', '', ( #44 ) ) ;
#486 = AXIS2_PLACEMENT_3D ( 'NONE', #232, #792, #1122 ) ;
#487 = DIRECTION ( 'NONE',  ( 0.0000000000000000000, 0.0000000000000000000, 1.000000000000000000 ) ) ;
#488 = CARTESIAN_POINT ( 'NONE',  ( -1.734723475976810250E-15, 0.0000000000000000000, 0.8000000000000000444 ) ) ;
#489 = VERTEX_POINT ( 'NONE', #960 ) ;
#490 = VECTOR ( 'NONE', #541, 1000.000000000000000 ) ;
#491 = EDGE_CURVE ( 'NONE', #300, #345, #920, .T. ) ;
#492 = ORIENTED_EDGE ( 'NONE', *, *, #298, .F. ) ;
#493 = SURFACE_STYLE_USAGE ( .BOTH. , #305 ) ;
#494 = FILL_AREA_STYLE ('',( #217 ) ) ;
#495 = ORIENTED_EDGE ( 'NONE', *, *, #42, .T. ) ;
#496 = SURFACE_STYLE_FILL_AREA ( #399 ) ;
#497 = EDGE_CURVE ( 'NONE', #772, #317, #401, .T. ) ;
#498 =( NAMED_UNIT ( * ) SI_UNIT ( $, .STERADIAN. ) SOLID_ANGLE_UNIT ( ) );
#499 =( LENGTH_UNIT ( ) NAMED_UNIT ( * ) SI_UNIT ( .MILLI., .METRE. ) );
#500 = VERTEX_POINT ( 'NONE', #435 ) ;
#501 = CARTESIAN_POINT ( 'NONE',  ( -1.734723475976810250E-15, 0.0000000000000000000, 1.084202172485499997E-16 ) ) ;
#502 = PLANE ( 'NONE',  #1060 ) ;
#503 = SURFACE_STYLE_USAGE ( .BOTH. , #3 ) ;
#504 = EDGE_CURVE ( 'NONE', #379, #818, #362, .T. ) ;
#505 = AXIS2_PLACEMENT_3D ( 'NONE', #604, #869, #947 ) ;
#506 = PRESENTATION_LAYER_ASSIGNMENT (  '', '', ( #333 ) ) ;
#507 = CARTESIAN_POINT ( 'NONE',  ( -1.734723475976810250E-15, 0.0000000000000000000, 1.084202172485499997E-16 ) ) ;
#508 = PRESENTATION_LAYER_ASSIGNMENT (  '', '', ( #910 ) ) ;
#509 = ORIENTED_EDGE ( 'NONE', *, *, #1023, .F. ) ;
#510 =( NAMED_UNIT ( * ) SI_UNIT ( $, .STERADIAN. ) SOLID_ANGLE_UNIT ( ) );
#511 = UNCERTAINTY_MEASURE_WITH_UNIT (LENGTH_MEASURE( 1.000000000000000082E-05 ), #251, 'distance_accuracy_value', 'NONE');
#512 = ORIENTED_EDGE ( 'NONE', *, *, #1076, .T. ) ;
#513 =( LENGTH_UNIT ( ) NAMED_UNIT ( * ) SI_UNIT ( .MILLI., .METRE. ) );
#514 = EDGE_CURVE ( 'NONE', #32, #526, #268, .T. ) ;
#515 = CARTESIAN_POINT ( 'NONE',  ( 0.5999999999999982014, 7.347880794884117764E-17, 1.084202172485499997E-16 ) ) ;
#516 = ORIENTED_EDGE ( 'NONE', *, *, #263, .T. ) ;
#517 = DIRECTION ( 'NONE',  ( -1.000000000000000000, 0.0000000000000000000, 0.0000000000000000000 ) ) ;
#518 = EDGE_LOOP ( 'NONE', ( #840, #35, #1007, #874 ) ) ;
#519 = FILL_AREA_STYLE_COLOUR ( '', #635 ) ;
#520 =( NAMED_UNIT ( * ) PLANE_ANGLE_UNIT ( ) SI_UNIT ( $, .RADIAN. ) );
#521 = DIRECTION ( 'NONE',  ( 0.0000000000000000000, 1.000000000000000000, 0.0000000000000000000 ) ) ;
#522 = ORIENTED_EDGE ( 'NONE', *, *, #630, .T. ) ;
#523 = CARTESIAN_POINT ( 'NONE',  ( 3.469446951953609850E-15, 2.200000000000000178, 0.8000000000000000444 ) ) ;
#524 =( NAMED_UNIT ( * ) PLANE_ANGLE_UNIT ( ) SI_UNIT ( $, .RADIAN. ) );
#525 = UNCERTAINTY_MEASURE_WITH_UNIT (LENGTH_MEASURE( 1.000000000000000082E-05 ), #29, 'distance_accuracy_value', 'NONE');
#526 = VERTEX_POINT ( 'NONE', #259 ) ;
#527 =( NAMED_UNIT ( * ) PLANE_ANGLE_UNIT ( ) SI_UNIT ( $, .RADIAN. ) );
#528 = CARTESIAN_POINT ( 'NONE',  ( 3.150000000000009237, -4.599999999999999645, 0.8000000000000000444 ) ) ;
#529 = SURFACE_STYLE_USAGE ( .BOTH. , #1066 ) ;
#530 = AXIS2_PLACEMENT_3D ( 'NONE', #501, #1111, #517 ) ;
#531 = MECHANICAL_DESIGN_GEOMETRIC_PRESENTATION_REPRESENTATION (  '', ( #580 ), #568 ) ;
#532 =( NAMED_UNIT ( * ) SI_UNIT ( $, .STERADIAN. ) SOLID_ANGLE_UNIT ( ) );
#533 = AXIS2_PLACEMENT_3D ( 'NONE', #692, #1037, #113 ) ;
#534 = DIRECTION ( 'NONE',  ( 0.0000000000000000000, 0.0000000000000000000, 1.000000000000000000 ) ) ;
#535 = VERTEX_POINT ( 'NONE', #620 ) ;
#536 = FILL_AREA_STYLE_COLOUR ( '', #450 ) ;
#537 = DIRECTION ( 'NONE',  ( -0.6173839229187519928, -0.7598571359000028114, 0.2036031059274317767 ) ) ;
#538 = ORIENTED_EDGE ( 'NONE', *, *, #952, .T. ) ;
#539 = DIRECTION ( 'NONE',  ( -0.0000000000000000000, -1.000000000000000000, 0.0000000000000000000 ) ) ;
#540 = EDGE_CURVE ( 'NONE', #489, #102, #968, .T. ) ;
#541 = DIRECTION ( 'NONE',  ( -0.0000000000000000000, -0.0000000000000000000, -1.000000000000000000 ) ) ;
#542 = FACE_OUTER_BOUND ( 'NONE', #37, .T. ) ;
#543 = DIRECTION ( 'NONE',  ( 0.0000000000000000000, 0.0000000000000000000, 1.000000000000000000 ) ) ;
#544 = CARTESIAN_POINT ( 'NONE',  ( 3.469446951953609850E-15, 3.000000000000000000, 0.5856406460551016879 ) ) ;
#545 = EDGE_CURVE ( 'NONE', #55, #227, #280, .T. ) ;
#546 = DIRECTION ( 'NONE',  ( -0.02998650910567149039, 0.9995503035223666233, 0.0000000000000000000 ) ) ;
#547 = ORIENTED_EDGE ( 'NONE', *, *, #952, .F. ) ;
#548 = STYLED_ITEM ( 'NONE', ( #876 ), #588 ) ;
#549 = VECTOR ( 'NONE', #210, 1000.000000000000114 ) ;
#550 = SURFACE_SIDE_STYLE ('',( #186 ) ) ;
#551 = CARTESIAN_POINT ( 'NONE',  ( -1.750000000000000000, 3.000000000000000444, 0.5856406460551016879 ) ) ;
#552 = CARTESIAN_POINT ( 'NONE',  ( -3.149999999999990141, -4.599999999999999645, 0.0000000000000000000 ) ) ;
#553 = EDGE_CURVE ( 'NONE', #526, #535, #977, .T. ) ;
#554 = ORIENTED_EDGE ( 'NONE', *, *, #504, .F. ) ;
#555 =( NAMED_UNIT ( * ) PLANE_ANGLE_UNIT ( ) SI_UNIT ( $, .RADIAN. ) );
#556 =( LENGTH_UNIT ( ) NAMED_UNIT ( * ) SI_UNIT ( .MILLI., .METRE. ) );
#557 = FACE_OUTER_BOUND ( 'NONE', #340, .T. ) ;
#558 = FILL_AREA_STYLE_COLOUR ( '', #834 ) ;
#559 = VERTEX_POINT ( 'NONE', #184 ) ;
#560 = CLOSED_SHELL ( 'NONE', ( #417, #403, #84, #751, #855, #1033, #93, #594, #404, #168, #732, #200, #588, #915, #801, #444, #109, #277, #657, #1102, #1116, #647, #1091, #83 ) ) ;
#561 = SURFACE_STYLE_USAGE ( .BOTH. , #803 ) ;
#562 = MECHANICAL_DESIGN_GEOMETRIC_PRESENTATION_REPRESENTATION (  '', ( #44 ), #290 ) ;
#563 = CARTESIAN_POINT ( 'NONE',  ( 2.635224949397770189, -10.30000000000000071, 0.8000000000000000444 ) ) ;
#564 = PRESENTATION_STYLE_ASSIGNMENT (( #474 ) ) ;
#565 =( GEOMETRIC_REPRESENTATION_CONTEXT ( 3 ) GLOBAL_UNCERTAINTY_ASSIGNED_CONTEXT ( ( #511 ) ) GLOBAL_UNIT_ASSIGNED_CONTEXT ( ( #251, #161, #420 ) ) REPRESENTATION_CONTEXT ( 'NONE', 'WORKASPACE' ) );
#566 = AXIS2_PLACEMENT_3D ( 'NONE', #139, #996, #742 ) ;
#567 =( NAMED_UNIT ( * ) PLANE_ANGLE_UNIT ( ) SI_UNIT ( $, .RADIAN. ) );
#568 =( GEOMETRIC_REPRESENTATION_CONTEXT ( 3 ) GLOBAL_UNCERTAINTY_ASSIGNED_CONTEXT ( ( #638 ) ) GLOBAL_UNIT_ASSIGNED_CONTEXT ( ( #828, #433, #242 ) ) REPRESENTATION_CONTEXT ( 'NONE', 'WORKASPACE' ) );
#569 = EDGE_LOOP ( 'NONE', ( #945, #736, #1117, #41 ) ) ;
#570 = MECHANICAL_DESIGN_GEOMETRIC_PRESENTATION_REPRESENTATION (  '', ( #910 ), #1035 ) ;
#571 = CARTESIAN_POINT ( 'NONE',  ( 2.399999999999999911, 2.200000000000000178, 0.8000000000000000444 ) ) ;
#572 = PRESENTATION_STYLE_ASSIGNMENT (( #207 ) ) ;
#573 = DIRECTION ( 'NONE',  ( 1.000000000000000000, 0.0000000000000000000, 0.0000000000000000000 ) ) ;
#574 = DIRECTION ( 'NONE',  ( 1.000000000000000000, 0.0000000000000000000, -0.0000000000000000000 ) ) ;
#575 = ORIENTED_EDGE ( 'NONE', *, *, #100, .F. ) ;
#576 =( NAMED_UNIT ( * ) SI_UNIT ( $, .STERADIAN. ) SOLID_ANGLE_UNIT ( ) );
#577 = STYLED_ITEM ( 'NONE', ( #309 ), #93 ) ;
#578 =( GEOMETRIC_REPRESENTATION_CONTEXT ( 3 ) GLOBAL_UNCERTAINTY_ASSIGNED_CONTEXT ( ( #837 ) ) GLOBAL_UNIT_ASSIGNED_CONTEXT ( ( #556, #1057, #883 ) ) REPRESENTATION_CONTEXT ( 'NONE', 'WORKASPACE' ) );
#579 = CARTESIAN_POINT ( 'NONE',  ( -2.649999999999990141, -10.30000000000000071, 0.0000000000000000000 ) ) ;
#580 = STYLED_ITEM ( 'NONE', ( #564 ), #855 ) ;
#581 = VECTOR ( 'NONE', #699, 1000.000000000000000 ) ;
#582 =( NAMED_UNIT ( * ) SI_UNIT ( $, .STERADIAN. ) SOLID_ANGLE_UNIT ( ) );
#583 = VERTEX_POINT ( 'NONE', #644 ) ;
#584 = FACE_OUTER_BOUND ( 'NONE', #13, .T. ) ;
#585 =( LENGTH_UNIT ( ) NAMED_UNIT ( * ) SI_UNIT ( .MILLI., .METRE. ) );
#586 = ORIENTED_EDGE ( 'NONE', *, *, #831, .T. ) ;
#587 = DIRECTION ( 'NONE',  ( -0.0000000000000000000, 0.2588190451025210725, 0.9659258262890682012 ) ) ;
#588 = ADVANCED_FACE ( 'NONE', ( #441 ), #1074, .T. ) ;
#589 = FACE_OUTER_BOUND ( 'NONE', #1000, .T. ) ;
#590 = CARTESIAN_POINT ( 'NONE',  ( -2.135449797636579827, -10.31499325455279958, 0.8000000000000000444 ) ) ;
#591 = PRESENTATION_STYLE_ASSIGNMENT (( #1109 ) ) ;
#592 = ORIENTED_EDGE ( 'NONE', *, *, #387, .F. ) ;
#593 = DIRECTION ( 'NONE',  ( 1.000000000000000000, 0.0000000000000000000, -0.0000000000000000000 ) ) ;
#594 = ADVANCED_FACE ( 'NONE', ( #111 ), #453, .F. ) ;
#595 = EDGE_CURVE ( 'NONE', #77, #783, #664, .T. ) ;
#596 = VERTEX_POINT ( 'NONE', #284 ) ;
#597 = MECHANICAL_DESIGN_GEOMETRIC_PRESENTATION_REPRESENTATION (  '', ( #937 ), #1094 ) ;
#598 = LINE ( 'NONE', #327, #906 ) ;
#599 = VECTOR ( 'NONE', #539, 1000.000000000000000 ) ;
#600 = SURFACE_STYLE_FILL_AREA ( #1135 ) ;
#601 = MECHANICAL_DESIGN_GEOMETRIC_PRESENTATION_REPRESENTATION (  '', ( #428 ), #729 ) ;
#602 = ORIENTED_EDGE ( 'NONE', *, *, #925, .T. ) ;
#603 = CARTESIAN_POINT ( 'NONE',  ( 2.951287929591360050E-15, -5.799999999999999822, 0.0000000000000000000 ) ) ;
#604 = CARTESIAN_POINT ( 'NONE',  ( -3.149999999999990141, -4.599999999999999645, 0.8000000000000000444 ) ) ;
#605 = PLANE ( 'NONE',  #82 ) ;
#606 = CARTESIAN_POINT ( 'NONE',  ( 2.399999999999999911, -4.599999999999999645, 0.8000000000000000444 ) ) ;
#607 =( NAMED_UNIT ( * ) SI_UNIT ( $, .STERADIAN. ) SOLID_ANGLE_UNIT ( ) );
#608 = ORIENTED_EDGE ( 'NONE', *, *, #715, .T. ) ;
#609 = FILL_AREA_STYLE_COLOUR ( '', #371 ) ;
#610 = LINE ( 'NONE', #875, #965 ) ;
#611 = CARTESIAN_POINT ( 'NONE',  ( -2.000000000000000000, -5.799999999999999822, 0.8000000000000000444 ) ) ;
#612 = ORIENTED_EDGE ( 'NONE', *, *, #545, .T. ) ;
#613 = MECHANICAL_DESIGN_GEOMETRIC_PRESENTATION_REPRESENTATION (  '', ( #654 ), #615 ) ;
#614 = CARTESIAN_POINT ( 'NONE',  ( -2.135449797636579827, -10.31499325455279958, 0.8000000000000000444 ) ) ;
#615 =( GEOMETRIC_REPRESENTATION_CONTEXT ( 3 ) GLOBAL_UNCERTAINTY_ASSIGNED_CONTEXT ( ( #1006 ) ) GLOBAL_UNIT_ASSIGNED_CONTEXT ( ( #101, #267, #445 ) ) REPRESENTATION_CONTEXT ( 'NONE', 'WORKASPACE' ) );
#616 = STYLED_ITEM ( 'NONE', ( #191 ), #594 ) ;
#617 = COLOUR_RGB ( '',0.9764705882352940902, 0.9764705882352940902, 0.9764705882352940902 ) ;
#618 = ORIENTED_EDGE ( 'NONE', *, *, #145, .F. ) ;
#619 =( GEOMETRIC_REPRESENTATION_CONTEXT ( 3 ) GLOBAL_UNCERTAINTY_ASSIGNED_CONTEXT ( ( #475 ) ) GLOBAL_UNIT_ASSIGNED_CONTEXT ( ( #159, #520, #425 ) ) REPRESENTATION_CONTEXT ( 'NONE', 'WORKASPACE' ) );
#620 = CARTESIAN_POINT ( 'NONE',  ( -2.649999999999990141, -10.80000000000000071, 0.8000000000000000444 ) ) ;
#621 = CARTESIAN_POINT ( 'NONE',  ( 1.750000000000000444, 3.000000000000000444, 0.2143593539448989949 ) ) ;
#622 = ORIENTED_EDGE ( 'NONE', *, *, #682, .T. ) ;
#623 = FILL_AREA_STYLE ('',( #262 ) ) ;
#624 = EDGE_CURVE ( 'NONE', #431, #1105, #1128, .T. ) ;
#625 = PRESENTATION_STYLE_ASSIGNMENT (( #974 ) ) ;
#626 = DIRECTION ( 'NONE',  ( 0.0000000000000000000, 1.000000000000000000, 0.0000000000000000000 ) ) ;
#627 = EDGE_LOOP ( 'NONE', ( #118, #1022, #81, #509 ) ) ;
#628 = DIRECTION ( 'NONE',  ( -1.000000000000000000, -0.0000000000000000000, 0.0000000000000000000 ) ) ;
#629 = EDGE_CURVE ( 'NONE', #764, #319, #1003, .T. ) ;
#630 = EDGE_CURVE ( 'NONE', #795, #535, #706, .T. ) ;
#631 = FILL_AREA_STYLE ('',( #269 ) ) ;
#632 = CARTESIAN_POINT ( 'NONE',  ( -2.399999999999999911, -4.599999999999999645, 0.0000000000000000000 ) ) ;
#633 = AXIS2_PLACEMENT_3D ( 'NONE', #36, #27, #546 ) ;
#634 = DIRECTION ( 'NONE',  ( 0.0000000000000000000, 0.0000000000000000000, 1.000000000000000000 ) ) ;
#635 = COLOUR_RGB ( '',0.9764705882352940902, 0.9764705882352940902, 0.9764705882352940902 ) ;
#636 = PRESENTATION_LAYER_ASSIGNMENT (  '', '', ( #202 ) ) ;
#637 = SURFACE_SIDE_STYLE ('',( #26 ) ) ;
#638 = UNCERTAINTY_MEASURE_WITH_UNIT (LENGTH_MEASURE( 1.000000000000000082E-05 ), #828, 'distance_accuracy_value', 'NONE');
#639 = AXIS2_PLACEMENT_3D ( 'NONE', #872, #705, #1059 ) ;
#640 = PRESENTATION_STYLE_ASSIGNMENT (( #193 ) ) ;
#641 = DIRECTION ( 'NONE',  ( 0.0000000000000000000, 0.0000000000000000000, 1.000000000000000000 ) ) ;
#642 = SURFACE_STYLE_USAGE ( .BOTH. , #286 ) ;
#643 = DIRECTION ( 'NONE',  ( -1.000000000000000000, -0.0000000000000000000, 0.0000000000000000000 ) ) ;
#644 = CARTESIAN_POINT ( 'NONE',  ( 2.000000000000000000, -5.799999999999999822, -3.975407965780182760E-16 ) ) ;
#645 = CARTESIAN_POINT ( 'NONE',  ( -1.734723475976810250E-15, 0.0000000000000000000, 0.8000000000000000444 ) ) ;
#646 = ORIENTED_EDGE ( 'NONE', *, *, #882, .F. ) ;
#647 = ADVANCED_FACE ( 'NONE', ( #816 ), #1092, .T. ) ;
#648 = SHAPE_DEFINITION_REPRESENTATION ( #206, #396 ) ;
#649 = ORIENTED_EDGE ( 'NONE', *, *, #42, .F. ) ;
#650 =( NAMED_UNIT ( * ) PLANE_ANGLE_UNIT ( ) SI_UNIT ( $, .RADIAN. ) );
#651 = SURFACE_STYLE_USAGE ( .BOTH. , #738 ) ;
#652 =( NAMED_UNIT ( * ) PLANE_ANGLE_UNIT ( ) SI_UNIT ( $, .RADIAN. ) );
#653 = ORIENTED_EDGE ( 'NONE', *, *, #181, .F. ) ;
#654 = STYLED_ITEM ( 'NONE', ( #1078 ), #200 ) ;
#655 = PLANE ( 'NONE',  #354 ) ;
#656 = VECTOR ( 'NONE', #845, 1000.000000000000000 ) ;
#657 = ADVANCED_FACE ( 'NONE', ( #584 ), #224, .T. ) ;
#658 = VECTOR ( 'NONE', #1046, 1000.000000000000000 ) ;
#659 = FILL_AREA_STYLE_COLOUR ( '', #61 ) ;
#660 = AXIS2_PLACEMENT_3D ( 'NONE', #571, #40, #634 ) ;
#661 = PLANE ( 'NONE',  #334 ) ;
#662 = ORIENTED_EDGE ( 'NONE', *, *, #199, .F. ) ;
#663 = UNCERTAINTY_MEASURE_WITH_UNIT (LENGTH_MEASURE( 1.000000000000000082E-05 ), #88, 'distance_accuracy_value', 'NONE');
#664 = LINE ( 'NONE', #289, #1056 ) ;
#665 = ORIENTED_EDGE ( 'NONE', *, *, #787, .T. ) ;
#666 = DIRECTION ( 'NONE',  ( -0.0000000000000000000, -0.0000000000000000000, 1.000000000000000000 ) ) ;
#667 = SURFACE_SIDE_STYLE ('',( #1009 ) ) ;
#668 = DIRECTION ( 'NONE',  ( 0.0000000000000000000, 0.0000000000000000000, 1.000000000000000000 ) ) ;
#669 = VECTOR ( 'NONE', #23, 1000.000000000000000 ) ;
#670 = ORIENTED_EDGE ( 'NONE', *, *, #297, .F. ) ;
#671 = STYLED_ITEM ( 'NONE', ( #351 ), #403 ) ;
#672 =( GEOMETRIC_REPRESENTATION_CONTEXT ( 3 ) GLOBAL_UNCERTAINTY_ASSIGNED_CONTEXT ( ( #1049 ) ) GLOBAL_UNIT_ASSIGNED_CONTEXT ( ( #1083, #555, #893 ) ) REPRESENTATION_CONTEXT ( 'NONE', 'WORKASPACE' ) );
#673 = VECTOR ( 'NONE', #700, 1000.000000000000000 ) ;
#674 = FILL_AREA_STYLE_COLOUR ( '', #65 ) ;
#675 = PRESENTATION_LAYER_ASSIGNMENT (  '', '', ( #152 ) ) ;
#676 = COLOUR_RGB ( '',0.7921568627450980005, 0.8196078431372548767, 0.9333333333333333481 ) ;
#677 =( GEOMETRIC_REPRESENTATION_CONTEXT ( 3 ) GLOBAL_UNCERTAINTY_ASSIGNED_CONTEXT ( ( #28 ) ) GLOBAL_UNIT_ASSIGNED_CONTEXT ( ( #326, #1132, #240 ) ) REPRESENTATION_CONTEXT ( 'NONE', 'WORKASPACE' ) );
#678 = ORIENTED_EDGE ( 'NONE', *, *, #199, .T. ) ;
#679 = PRESENTATION_STYLE_ASSIGNMENT (( #57 ) ) ;
#680 = DIRECTION ( 'NONE',  ( -0.02998650910567039404, -0.9995503035223666233, 0.0000000000000000000 ) ) ;
#681 =( LENGTH_UNIT ( ) NAMED_UNIT ( * ) SI_UNIT ( .MILLI., .METRE. ) );
#682 = EDGE_CURVE ( 'NONE', #583, #398, #689, .T. ) ;
#683 = ORIENTED_EDGE ( 'NONE', *, *, #1062, .T. ) ;
#684 = LINE ( 'NONE', #228, #725 ) ;
#685 =( NAMED_UNIT ( * ) PLANE_ANGLE_UNIT ( ) SI_UNIT ( $, .RADIAN. ) );
#686 = EDGE_LOOP ( 'NONE', ( #71, #708, #350, #279, #538, #670, #512, #622, #5, #1025, #863, #452, #665, #678, #1053, #1113 ) ) ;
#687 =( NAMED_UNIT ( * ) PLANE_ANGLE_UNIT ( ) SI_UNIT ( $, .RADIAN. ) );
#688 = ORIENTED_EDGE ( 'NONE', *, *, #229, .F. ) ;
#689 = LINE ( 'NONE', #603, #941 ) ;
#690 = VECTOR ( 'NONE', #414, 1000.000000000000000 ) ;
#691 = CARTESIAN_POINT ( 'NONE',  ( 1.750000000000000000, 3.000000000000000000, 0.8000000000000000444 ) ) ;
#692 = CARTESIAN_POINT ( 'NONE',  ( -2.649999999999990141, -10.30000000000000071, 0.0000000000000000000 ) ) ;
#693 = MECHANICAL_DESIGN_GEOMETRIC_PRESENTATION_REPRESENTATION (  '', ( #308 ), #136 ) ;
#694 = PRESENTATION_LAYER_ASSIGNMENT (  '', '', ( #1133 ) ) ;
#695 = PRESENTATION_STYLE_ASSIGNMENT (( #157 ) ) ;
#696 = UNCERTAINTY_MEASURE_WITH_UNIT (LENGTH_MEASURE( 1.000000000000000082E-05 ), #499, 'distance_accuracy_value', 'NONE');
#697 = FILL_AREA_STYLE ('',( #536 ) ) ;
#698 = DIRECTION ( 'NONE',  ( 0.0000000000000000000, 0.0000000000000000000, 1.000000000000000000 ) ) ;
#699 = DIRECTION ( 'NONE',  ( -0.0000000000000000000, 1.000000000000000000, 0.0000000000000000000 ) ) ;
#700 = DIRECTION ( 'NONE',  ( 0.0000000000000000000, -1.000000000000000000, -0.0000000000000000000 ) ) ;
#701 = CARTESIAN_POINT ( 'NONE',  ( -2.399999999999999911, -4.599999999999999645, 0.8000000000000000444 ) ) ;
#702 = ORIENTED_EDGE ( 'NONE', *, *, #316, .T. ) ;
#703 = CARTESIAN_POINT ( 'NONE',  ( 2.650000000000010125, -10.80000000000000071, 0.0000000000000000000 ) ) ;
#704 = AXIS2_PLACEMENT_3D ( 'NONE', #112, #306, #680 ) ;
#705 = DIRECTION ( 'NONE',  ( 0.0000000000000000000, 0.0000000000000000000, 1.000000000000000000 ) ) ;
#706 = CIRCLE ( 'NONE', #566, 0.5000000000000000000 ) ;
#707 = AXIS2_PLACEMENT_3D ( 'NONE', #606, #884, #4 ) ;
#708 = ORIENTED_EDGE ( 'NONE', *, *, #410, .T. ) ;
#709 = PRESENTATION_LAYER_ASSIGNMENT (  '', '', ( #428 ) ) ;
#710 = EDGE_CURVE ( 'NONE', #1, #818, #75, .T. ) ;
#711 = DIRECTION ( 'NONE',  ( -1.000000000000000000, -0.0000000000000000000, 0.0000000000000000000 ) ) ;
#712 = PLANE ( 'NONE',  #358 ) ;
#713 =( LENGTH_UNIT ( ) NAMED_UNIT ( * ) SI_UNIT ( .MILLI., .METRE. ) );
#714 = CARTESIAN_POINT ( 'NONE',  ( 3.490130596553060506E-15, 3.000000000000000000, 0.2143593539448990226 ) ) ;
#715 = EDGE_CURVE ( 'NONE', #924, #976, #684, .T. ) ;
#716 = CARTESIAN_POINT ( 'NONE',  ( -2.649999999999990141, -4.599999999999999645, 0.8000000000000000444 ) ) ;
#717 = FILL_AREA_STYLE_COLOUR ( '', #724 ) ;
#718 = DIRECTION ( 'NONE',  ( -1.000000000000000000, 0.0000000000000000000, 0.0000000000000000000 ) ) ;
#719 = DIRECTION ( 'NONE',  ( -0.0000000000000000000, -0.0000000000000000000, -1.000000000000000000 ) ) ;
#720 = CARTESIAN_POINT ( 'NONE',  ( -2.649999999999990141, -10.80000000000000071, 0.8000000000000000444 ) ) ;
#721 = AXIS2_PLACEMENT_3D ( 'NONE', #473, #821, #183 ) ;
#722 = DIRECTION ( 'NONE',  ( 0.0000000000000000000, 0.0000000000000000000, 1.000000000000000000 ) ) ;
#723 =( NAMED_UNIT ( * ) PLANE_ANGLE_UNIT ( ) SI_UNIT ( $, .RADIAN. ) );
#724 = COLOUR_RGB ( '',0.9764705882352940902, 0.9764705882352940902, 0.9764705882352940902 ) ;
#725 = VECTOR ( 'NONE', #593, 1000.000000000000000 ) ;
#726 = FILL_AREA_STYLE ('',( #991 ) ) ;
#727 = DIRECTION ( 'NONE',  ( 1.000000000000000000, 0.0000000000000000000, -0.0000000000000000000 ) ) ;
#728 = UNCERTAINTY_MEASURE_WITH_UNIT (LENGTH_MEASURE( 1.000000000000000082E-05 ), #1112, 'distance_accuracy_value', 'NONE');
#729 =( GEOMETRIC_REPRESENTATION_CONTEXT ( 3 ) GLOBAL_UNCERTAINTY_ASSIGNED_CONTEXT ( ( #135 ) ) GLOBAL_UNIT_ASSIGNED_CONTEXT ( ( #754, #1099, #917 ) ) REPRESENTATION_CONTEXT ( 'NONE', 'WORKASPACE' ) );
#730 = MECHANICAL_DESIGN_GEOMETRIC_PRESENTATION_REPRESENTATION (  '', ( #107 ), #430 ) ;
#731 = LINE ( 'NONE', #1071, #817 ) ;
#732 = ADVANCED_FACE ( 'NONE', ( #413 ), #765, .F. ) ;
#733 = PLANE ( 'NONE',  #633 ) ;
#734 = DIRECTION ( 'NONE',  ( 0.0000000000000000000, -1.000000000000000000, -0.0000000000000000000 ) ) ;
#735 = ORIENTED_EDGE ( 'NONE', *, *, #491, .T. ) ;
#736 = ORIENTED_EDGE ( 'NONE', *, *, #786, .T. ) ;
#737 = SURFACE_SIDE_STYLE ('',( #988 ) ) ;
#738 = SURFACE_SIDE_STYLE ('',( #369 ) ) ;
#739 = UNCERTAINTY_MEASURE_WITH_UNIT (LENGTH_MEASURE( 1.000000000000000082E-05 ), #713, 'distance_accuracy_value', 'NONE');
#740 = EDGE_CURVE ( 'NONE', #227, #795, #370, .T. ) ;
#741 = LINE ( 'NONE', #1073, #669 ) ;
#742 = DIRECTION ( 'NONE',  ( 1.000000000000000000, 0.0000000000000000000, 0.0000000000000000000 ) ) ;
#743 = UNCERTAINTY_MEASURE_WITH_UNIT (LENGTH_MEASURE( 1.000000000000000082E-05 ), #896, 'distance_accuracy_value', 'NONE');
#744 = DIRECTION ( 'NONE',  ( -0.02998650910567039404, -0.9995503035223666233, 0.0000000000000000000 ) ) ;
#745 = EDGE_LOOP ( 'NONE', ( #612, #478, #128, #662 ) ) ;
#746 = PRESENTATION_LAYER_ASSIGNMENT (  '', '', ( #80 ) ) ;
#747 = DIRECTION ( 'NONE',  ( 0.0000000000000000000, 0.9659258262890680902, 0.2588190451025210170 ) ) ;
#748 = EDGE_CURVE ( 'NONE', #319, #783, #610, .T. ) ;
#749 = COLOUR_RGB ( '',0.9764705882352940902, 0.9764705882352940902, 0.9764705882352940902 ) ;
#750 = COLOUR_RGB ( '',0.7921568627450980005, 0.8196078431372548767, 0.9333333333333333481 ) ;
#751 = ADVANCED_FACE ( 'NONE', ( #204 ), #804, .F. ) ;
#752 = PRESENTATION_STYLE_ASSIGNMENT (( #929 ) ) ;
#753 = ORIENTED_EDGE ( 'NONE', *, *, #903, .F. ) ;
#754 =( LENGTH_UNIT ( ) NAMED_UNIT ( * ) SI_UNIT ( .MILLI., .METRE. ) );
#755 = SURFACE_STYLE_USAGE ( .BOTH. , #54 ) ;
#756 = ORIENTED_EDGE ( 'NONE', *, *, #264, .F. ) ;
#757 = PRESENTATION_STYLE_ASSIGNMENT (( #773 ) ) ;
#758 = MECHANICAL_DESIGN_GEOMETRIC_PRESENTATION_REPRESENTATION (  '', ( #1127 ), #565 ) ;
#759 = MECHANICAL_DESIGN_GEOMETRIC_PRESENTATION_REPRESENTATION (  '', ( #616 ), #258 ) ;
#760 = LINE ( 'NONE', #1040, #255 ) ;
#761 = FILL_AREA_STYLE_COLOUR ( '', #153 ) ;
#762 = CARTESIAN_POINT ( 'NONE',  ( -3.149999999999996358, -4.599999999999999645, 0.8000000000000000444 ) ) ;
#763 = VERTEX_POINT ( 'NONE', #278 ) ;
#764 = VERTEX_POINT ( 'NONE', #913 ) ;
#765 = PLANE ( 'NONE',  #982 ) ;
#766 = ORIENTED_EDGE ( 'NONE', *, *, #943, .F. ) ;
#767 = PRESENTATION_STYLE_ASSIGNMENT (( #178 ) ) ;
#768 = CARTESIAN_POINT ( 'NONE',  ( 2.635224949397770189, -10.30000000000000071, 0.0000000000000000000 ) ) ;
#769 = CARTESIAN_POINT ( 'NONE',  ( 2.399999999999999911, 2.200000000000000178, 1.084202172485504434E-16 ) ) ;
#770 = LINE ( 'NONE', #1123, #1103 ) ;
#771 = CIRCLE ( 'NONE', #1075, 0.5000000000000000000 ) ;
#772 = VERTEX_POINT ( 'NONE', #477 ) ;
#773 = SURFACE_STYLE_USAGE ( .BOTH. , #867 ) ;
#774 = AXIS2_PLACEMENT_3D ( 'NONE', #507, #839, #301 ) ;
#775 = ORIENTED_EDGE ( 'NONE', *, *, #411, .T. ) ;
#776 = AXIS2_PLACEMENT_3D ( 'NONE', #768, #698, #857 ) ;
#777 = FILL_AREA_STYLE ('',( #519 ) ) ;
#778 = VECTOR ( 'NONE', #6, 1000.000000000000000 ) ;
#779 = VECTOR ( 'NONE', #932, 1000.000000000000000 ) ;
#780 =( NAMED_UNIT ( * ) SI_UNIT ( $, .STERADIAN. ) SOLID_ANGLE_UNIT ( ) );
#781 =( GEOMETRIC_REPRESENTATION_CONTEXT ( 3 ) GLOBAL_UNCERTAINTY_ASSIGNED_CONTEXT ( ( #992 ) ) GLOBAL_UNIT_ASSIGNED_CONTEXT ( ( #820, #650, #1089 ) ) REPRESENTATION_CONTEXT ( 'NONE', 'WORKASPACE' ) );
#782 = AXIS2_PLACEMENT_3D ( 'NONE', #34, #195, #894 ) ;
#783 = VERTEX_POINT ( 'NONE', #958 ) ;
#784 = DIRECTION ( 'NONE',  ( -0.6305926250944651201, -0.7761140001162660784, 0.0000000000000000000 ) ) ;
#785 = DIRECTION ( 'NONE',  ( 0.0000000000000000000, 0.0000000000000000000, 1.000000000000000000 ) ) ;
#786 = EDGE_CURVE ( 'NONE', #77, #764, #22, .T. ) ;
#787 = EDGE_CURVE ( 'NONE', #256, #55, #271, .T. ) ;
#788 = ORIENTED_EDGE ( 'NONE', *, *, #167, .T. ) ;
#789 = FACE_BOUND ( 'NONE', #1029, .T. ) ;
#790 = PLANE ( 'NONE',  #707 ) ;
#791 = ORIENTED_EDGE ( 'NONE', *, *, #595, .F. ) ;
#792 = DIRECTION ( 'NONE',  ( 1.000000000000000000, -0.0000000000000000000, 0.0000000000000000000 ) ) ;
#793 = CARTESIAN_POINT ( 'NONE',  ( 2.635224949397769745, -10.80000000000000071, 0.8000000000000000444 ) ) ;
#794 = DIRECTION ( 'NONE',  ( 0.0000000000000000000, -1.000000000000000000, 0.0000000000000000000 ) ) ;
#795 = VERTEX_POINT ( 'NONE', #143 ) ;
#796 = DIRECTION ( 'NONE',  ( -0.0000000000000000000, 0.0000000000000000000, 1.000000000000000000 ) ) ;
#797 = PLANE ( 'NONE',  #451 ) ;
#798 = CIRCLE ( 'NONE', #465, 0.5000000000000000000 ) ;
#799 = DIRECTION ( 'NONE',  ( 0.0000000000000000000, -0.0000000000000000000, 1.000000000000000000 ) ) ;
#800 = EDGE_CURVE ( 'NONE', #345, #479, #1043, .T. ) ;
#801 = ADVANCED_FACE ( 'NONE', ( #557 ), #1084, .T. ) ;
#802 = ORIENTED_EDGE ( 'NONE', *, *, #25, .T. ) ;
#803 = SURFACE_SIDE_STYLE ('',( #813 ) ) ;
#804 = PLANE ( 'NONE',  #660 ) ;
#805 = CARTESIAN_POINT ( 'NONE',  ( -2.635224949397759975, -10.80000000000000071, 0.0000000000000000000 ) ) ;
#806 = FILL_AREA_STYLE_COLOUR ( '', #850 ) ;
#807 = UNCERTAINTY_MEASURE_WITH_UNIT (LENGTH_MEASURE( 1.000000000000000082E-05 ), #901, 'distance_accuracy_value', 'NONE');
#808 = FILL_AREA_STYLE_COLOUR ( '', #464 ) ;
#809 = EDGE_LOOP ( 'NONE', ( #386, #592, #495, #1067 ) ) ;
#810 = CARTESIAN_POINT ( 'NONE',  ( -3.149999999999990141, -4.599999999999999645, 0.8000000000000000444 ) ) ;
#811 = MECHANICAL_DESIGN_GEOMETRIC_PRESENTATION_REPRESENTATION (  '', ( #80 ), #148 ) ;
#812 = PRESENTATION_STYLE_ASSIGNMENT (( #460 ) ) ;
#813 = SURFACE_STYLE_FILL_AREA ( #114 ) ;
#814 = VECTOR ( 'NONE', #95, 1000.000000000000000 ) ;
#815 = ORIENTED_EDGE ( 'NONE', *, *, #1069, .F. ) ;
#816 = FACE_OUTER_BOUND ( 'NONE', #962, .T. ) ;
#817 = VECTOR ( 'NONE', #744, 1000.000000000000114 ) ;
#818 = VERTEX_POINT ( 'NONE', #92 ) ;
#819 = EDGE_CURVE ( 'NONE', #30, #345, #7, .T. ) ;
#820 =( LENGTH_UNIT ( ) NAMED_UNIT ( * ) SI_UNIT ( .MILLI., .METRE. ) );
#821 = DIRECTION ( 'NONE',  ( -0.0000000000000000000, -0.0000000000000000000, 1.000000000000000000 ) ) ;
#822 = DIRECTION ( 'NONE',  ( -1.000000000000000000, -0.0000000000000000000, 0.0000000000000000000 ) ) ;
#823 = CARTESIAN_POINT ( 'NONE',  ( 3.150000000000010125, -4.599999999999999645, 0.8000000000000000444 ) ) ;
#824 =( NAMED_UNIT ( * ) PLANE_ANGLE_UNIT ( ) SI_UNIT ( $, .RADIAN. ) );
#825 = EDGE_CURVE ( 'NONE', #317, #500, #66, .T. ) ;
#826 = CARTESIAN_POINT ( 'NONE',  ( 2.400000000000000355, -4.599999999999999645, 2.710505431213761085E-17 ) ) ;
#827 = UNCERTAINTY_MEASURE_WITH_UNIT (LENGTH_MEASURE( 1.000000000000000082E-05 ), #395, 'distance_accuracy_value', 'NONE');
#828 =( LENGTH_UNIT ( ) NAMED_UNIT ( * ) SI_UNIT ( .MILLI., .METRE. ) );
#829 = ORIENTED_EDGE ( 'NONE', *, *, #854, .T. ) ;
#830 = VECTOR ( 'NONE', #470, 1000.000000000000227 ) ;
#831 = EDGE_CURVE ( 'NONE', #479, #772, #978, .T. ) ;
#832 = CIRCLE ( 'NONE', #776, 0.5000000000000000000 ) ;
#833 = VECTOR ( 'NONE', #265, 1000.000000000000000 ) ;
#834 = COLOUR_RGB ( '',0.9764705882352940902, 0.9764705882352940902, 0.9764705882352940902 ) ;
#835 = FILL_AREA_STYLE_COLOUR ( '', #980 ) ;
#836 = LINE ( 'NONE', #225, #549 ) ;
#837 = UNCERTAINTY_MEASURE_WITH_UNIT (LENGTH_MEASURE( 1.000000000000000082E-05 ), #556, 'distance_accuracy_value', 'NONE');
#838 = ORIENTED_EDGE ( 'NONE', *, *, #990, .T. ) ;
#839 = DIRECTION ( 'NONE',  ( 0.0000000000000000000, 0.0000000000000000000, -1.000000000000000000 ) ) ;
#840 = ORIENTED_EDGE ( 'NONE', *, *, #491, .F. ) ;
#841 = CARTESIAN_POINT ( 'NONE',  ( 2.650000000000010125, -10.80000000000000071, 0.8000000000000000444 ) ) ;
#842 = DIRECTION ( 'NONE',  ( 0.0000000000000000000, 1.000000000000000000, 0.0000000000000000000 ) ) ;
#843 = SURFACE_STYLE_FILL_AREA ( #494 ) ;
#844 = VERTEX_POINT ( 'NONE', #381 ) ;
#845 = DIRECTION ( 'NONE',  ( 1.000000000000000000, 0.0000000000000000000, 0.0000000000000000000 ) ) ;
#846 =( NAMED_UNIT ( * ) PLANE_ANGLE_UNIT ( ) SI_UNIT ( $, .RADIAN. ) );
#847 = PRESENTATION_LAYER_ASSIGNMENT (  '', '', ( #888 ) ) ;
#848 = VERTEX_POINT ( 'NONE', #703 ) ;
#849 = DIRECTION ( 'NONE',  ( -0.7761140001162660784, 0.6305926250944651201, 0.0000000000000000000 ) ) ;
#850 = COLOUR_RGB ( '',0.9764705882352940902, 0.9764705882352940902, 0.9764705882352940902 ) ;
#851 = DIRECTION ( 'NONE',  ( 1.000000000000000000, 0.0000000000000000000, 0.0000000000000000000 ) ) ;
#852 =( GEOMETRIC_REPRESENTATION_CONTEXT ( 3 ) GLOBAL_UNCERTAINTY_ASSIGNED_CONTEXT ( ( #39 ) ) GLOBAL_UNIT_ASSIGNED_CONTEXT ( ( #127, #652, #471 ) ) REPRESENTATION_CONTEXT ( 'NONE', 'WORKASPACE' ) );
#853 = FILL_AREA_STYLE ('',( #674 ) ) ;
#854 = EDGE_CURVE ( 'NONE', #489, #379, #257, .T. ) ;
#855 = ADVANCED_FACE ( 'NONE', ( #14 ), #790, .F. ) ;
#856 = AXIS2_PLACEMENT_3D ( 'NONE', #488, #482, #1005 ) ;
#857 = DIRECTION ( 'NONE',  ( 1.000000000000000000, 0.0000000000000000000, 0.0000000000000000000 ) ) ;
#858 = ORIENTED_EDGE ( 'NONE', *, *, #167, .F. ) ;
#859 = ORIENTED_EDGE ( 'NONE', *, *, #288, .T. ) ;
#860 =( LENGTH_UNIT ( ) NAMED_UNIT ( * ) SI_UNIT ( .MILLI., .METRE. ) );
#861 = ORIENTED_EDGE ( 'NONE', *, *, #94, .F. ) ;
#862 = LINE ( 'NONE', #76, #673 ) ;
#863 = ORIENTED_EDGE ( 'NONE', *, *, #514, .T. ) ;
#864 =( NAMED_UNIT ( * ) SI_UNIT ( $, .STERADIAN. ) SOLID_ANGLE_UNIT ( ) );
#865 = FILL_AREA_STYLE_COLOUR ( '', #233 ) ;
#866 = ORIENTED_EDGE ( 'NONE', *, *, #504, .T. ) ;
#867 = SURFACE_SIDE_STYLE ('',( #496 ) ) ;
#868 = VECTOR ( 'NONE', #384, 1000.000000000000227 ) ;
#869 = DIRECTION ( 'NONE',  ( 1.000000000000000000, -0.0000000000000000000, 0.0000000000000000000 ) ) ;
#870 = VECTOR ( 'NONE', #432, 1000.000000000000000 ) ;
#871 = FILL_AREA_STYLE ('',( #865 ) ) ;
#872 = CARTESIAN_POINT ( 'NONE',  ( 2.650000000000010125, -10.30000000000000071, 0.0000000000000000000 ) ) ;
#873 = VECTOR ( 'NONE', #879, 1000.000000000000000 ) ;
#874 = ORIENTED_EDGE ( 'NONE', *, *, #819, .T. ) ;
#875 = CARTESIAN_POINT ( 'NONE',  ( -2.399999999999999911, 2.200000000000000178, 0.8000000000000000444 ) ) ;
#876 = PRESENTATION_STYLE_ASSIGNMENT (( #374 ) ) ;
#877 = ORIENTED_EDGE ( 'NONE', *, *, #229, .T. ) ;
#878 = LINE ( 'NONE', #1042, #389 ) ;
#879 = DIRECTION ( 'NONE',  ( -1.000000000000000000, -0.0000000000000000000, 0.0000000000000000000 ) ) ;
#880 = PLANE ( 'NONE',  #446 ) ;
#881 =( NAMED_UNIT ( * ) PLANE_ANGLE_UNIT ( ) SI_UNIT ( $, .RADIAN. ) );
#882 = EDGE_CURVE ( 'NONE', #300, #32, #96, .T. ) ;
#883 =( NAMED_UNIT ( * ) SI_UNIT ( $, .STERADIAN. ) SOLID_ANGLE_UNIT ( ) );
#884 = DIRECTION ( 'NONE',  ( 0.0000000000000000000, -1.000000000000000000, 0.0000000000000000000 ) ) ;
#885 = PRESENTATION_STYLE_ASSIGNMENT (( #561 ) ) ;
#886 = SURFACE_STYLE_FILL_AREA ( #623 ) ;
#887 = CARTESIAN_POINT ( 'NONE',  ( -2.635224949397759975, -10.30000000000000071, 0.8000000000000000444 ) ) ;
#888 = STYLED_ITEM ( 'NONE', ( #591 ), #83 ) ;
#889 =( GEOMETRIC_REPRESENTATION_CONTEXT ( 3 ) GLOBAL_UNCERTAINTY_ASSIGNED_CONTEXT ( ( #911 ) ) GLOBAL_UNIT_ASSIGNED_CONTEXT ( ( #484, #1110, #1039 ) ) REPRESENTATION_CONTEXT ( 'NONE', 'WORKASPACE' ) );
#890 = PLANE ( 'NONE',  #704 ) ;
#891 = VECTOR ( 'NONE', #928, 1000.000000000000000 ) ;
#892 = DIRECTION ( 'NONE',  ( 0.0000000000000000000, 0.0000000000000000000, 1.000000000000000000 ) ) ;
#893 =( NAMED_UNIT ( * ) SI_UNIT ( $, .STERADIAN. ) SOLID_ANGLE_UNIT ( ) );
#894 = DIRECTION ( 'NONE',  ( 1.000000000000000000, 0.0000000000000000000, 0.0000000000000000000 ) ) ;
#895 =( LENGTH_UNIT ( ) NAMED_UNIT ( * ) SI_UNIT ( .MILLI., .METRE. ) );
#896 =( LENGTH_UNIT ( ) NAMED_UNIT ( * ) SI_UNIT ( .MILLI., .METRE. ) );
#897 = LINE ( 'NONE', #714, #1010 ) ;
#898 = FACE_OUTER_BOUND ( 'NONE', #378, .T. ) ;
#899 = DIRECTION ( 'NONE',  ( 0.0000000000000000000, 0.0000000000000000000, 1.000000000000000000 ) ) ;
#900 = CARTESIAN_POINT ( 'NONE',  ( -1.750000000000000000, 3.000000000000000000, 0.2143593539448990226 ) ) ;
#901 =( LENGTH_UNIT ( ) NAMED_UNIT ( * ) SI_UNIT ( .MILLI., .METRE. ) );
#902 = VERTEX_POINT ( 'NONE', #179 ) ;
#903 = EDGE_CURVE ( 'NONE', #818, #77, #971, .T. ) ;
#904 = ORIENTED_EDGE ( 'NONE', *, *, #298, .T. ) ;
#905 = LINE ( 'NONE', #900, #830 ) ;
#906 = VECTOR ( 'NONE', #1020, 1000.000000000000000 ) ;
#907 = AXIS2_PLACEMENT_3D ( 'NONE', #841, #1087, #466 ) ;
#908 = ORIENTED_EDGE ( 'NONE', *, *, #297, .T. ) ;
#909 = VECTOR ( 'NONE', #318, 1000.000000000000000 ) ;
#910 = STYLED_ITEM ( 'NONE', ( #812 ), #1048 ) ;
#911 = UNCERTAINTY_MEASURE_WITH_UNIT (LENGTH_MEASURE( 1.000000000000000082E-05 ), #484, 'distance_accuracy_value', 'NONE');
#912 = ORIENTED_EDGE ( 'NONE', *, *, #10, .T. ) ;
#913 = CARTESIAN_POINT ( 'NONE',  ( 2.399999999999999911, 2.200000000000000178, 8.446021537043948563E-17 ) ) ;
#914 =( NAMED_UNIT ( * ) SI_UNIT ( $, .STERADIAN. ) SOLID_ANGLE_UNIT ( ) );
#915 = ADVANCED_FACE ( 'NONE', ( #18 ), #712, .F. ) ;
#916 = APPLICATION_CONTEXT ( 'automotive_design' ) ;
#917 =( NAMED_UNIT ( * ) SI_UNIT ( $, .STERADIAN. ) SOLID_ANGLE_UNIT ( ) );
#918 = CIRCLE ( 'NONE', #721, 0.5999999999999999778 ) ;
#919 = MECHANICAL_DESIGN_GEOMETRIC_PRESENTATION_REPRESENTATION (  '', ( #577 ), #424 ) ;
#920 = CIRCLE ( 'NONE', #216, 0.5000000000000000000 ) ;
#921 = DIRECTION ( 'NONE',  ( -1.000000000000000000, -0.0000000000000000000, 0.0000000000000000000 ) ) ;
#922 = VECTOR ( 'NONE', #796, 1000.000000000000000 ) ;
#923 = MECHANICAL_DESIGN_GEOMETRIC_PRESENTATION_REPRESENTATION (  '', ( #1133 ), #781 ) ;
#924 = VERTEX_POINT ( 'NONE', #793 ) ;
#925 = EDGE_CURVE ( 'NONE', #848, #102, #295, .T. ) ;
#926 = FILL_AREA_STYLE_COLOUR ( '', #87 ) ;
#927 = LINE ( 'NONE', #1101, #656 ) ;
#928 = DIRECTION ( 'NONE',  ( 0.0000000000000000000, 1.000000000000000000, 0.0000000000000000000 ) ) ;
#929 = SURFACE_STYLE_USAGE ( .BOTH. , #222 ) ;
#930 = ORIENTED_EDGE ( 'NONE', *, *, #710, .F. ) ;
#931 = FILL_AREA_STYLE_COLOUR ( '', #59 ) ;
#932 = DIRECTION ( 'NONE',  ( 0.0000000000000000000, 0.0000000000000000000, 1.000000000000000000 ) ) ;
#933 =( NAMED_UNIT ( * ) PLANE_ANGLE_UNIT ( ) SI_UNIT ( $, .RADIAN. ) );
#934 = CARTESIAN_POINT ( 'NONE',  ( -2.635224949397759975, -10.80000000000000071, 0.8000000000000000444 ) ) ;
#935 = SURFACE_STYLE_FILL_AREA ( #296 ) ;
#936 = ORIENTED_EDGE ( 'NONE', *, *, #540, .F. ) ;
#937 = STYLED_ITEM ( 'NONE', ( #324 ), #444 ) ;
#938 = VECTOR ( 'NONE', #921, 1000.000000000000000 ) ;
#939 = CARTESIAN_POINT ( 'NONE',  ( -0.6000000000000016431, 0.0000000000000000000, 1.084202172485499997E-16 ) ) ;
#940 = ORIENTED_EDGE ( 'NONE', *, *, #903, .T. ) ;
#941 = VECTOR ( 'NONE', #1126, 1000.000000000000000 ) ;
#942 = CARTESIAN_POINT ( 'NONE',  ( 2.135449797636588709, -10.31499325455281735, 0.8000000000000000444 ) ) ;
#943 = EDGE_CURVE ( 'NONE', #162, #783, #1044, .T. ) ;
#944 =( LENGTH_UNIT ( ) NAMED_UNIT ( * ) SI_UNIT ( .MILLI., .METRE. ) );
#945 = ORIENTED_EDGE ( 'NONE', *, *, #442, .F. ) ;
#946 = SURFACE_STYLE_FILL_AREA ( #236 ) ;
#947 = DIRECTION ( 'NONE',  ( 0.0000000000000000000, 0.0000000000000000000, -1.000000000000000000 ) ) ;
#948 = EDGE_LOOP ( 'NONE', ( #1090, #20, #52, #421 ) ) ;
#949 = SURFACE_STYLE_FILL_AREA ( #697 ) ;
#950 = FACE_OUTER_BOUND ( 'NONE', #91, .T. ) ;
#951 = FILL_AREA_STYLE_COLOUR ( '', #469 ) ;
#952 = EDGE_CURVE ( 'NONE', #848, #844, #261, .T. ) ;
#953 = UNCERTAINTY_MEASURE_WITH_UNIT (LENGTH_MEASURE( 1.000000000000000082E-05 ), #513, 'distance_accuracy_value', 'NONE');
#954 = VERTEX_POINT ( 'NONE', #621 ) ;
#955 = PRESENTATION_STYLE_ASSIGNMENT (( #503 ) ) ;
#956 = CARTESIAN_POINT ( 'NONE',  ( -1.750000000000000000, 3.000000000000000000, 0.5856406460551016879 ) ) ;
#957 = ORIENTED_EDGE ( 'NONE', *, *, #595, .T. ) ;
#958 = CARTESIAN_POINT ( 'NONE',  ( -2.399999999999999911, 2.200000000000000178, 0.8000000000000000444 ) ) ;
#959 = VECTOR ( 'NONE', #331, 1000.000000000000000 ) ;
#960 = CARTESIAN_POINT ( 'NONE',  ( 3.150000000000010125, -4.599999999999999645, 0.0000000000000000000 ) ) ;
#961 = DIRECTION ( 'NONE',  ( 1.000000000000000000, 0.0000000000000000000, 0.0000000000000000000 ) ) ;
#962 = EDGE_LOOP ( 'NONE', ( #766, #322, #38, #1034 ) ) ;
#963 = SURFACE_STYLE_FILL_AREA ( #78 ) ;
#964 = CARTESIAN_POINT ( 'NONE',  ( -2.000000000000000000, -5.799999999999999822, 0.8000000000000000444 ) ) ;
#965 = VECTOR ( 'NONE', #1079, 1000.000000000000000 ) ;
#966 = COLOUR_RGB ( '',0.9764705882352940902, 0.9764705882352940902, 0.9764705882352940902 ) ;
#967 = CARTESIAN_POINT ( 'NONE',  ( 3.150000000000010125, -4.599999999999999645, 0.8000000000000000444 ) ) ;
#968 = LINE ( 'NONE', #105, #599 ) ;
#969 = UNCERTAINTY_MEASURE_WITH_UNIT (LENGTH_MEASURE( 1.000000000000000082E-05 ), #895, 'distance_accuracy_value', 'NONE');
#970 = FACE_OUTER_BOUND ( 'NONE', #569, .T. ) ;
#971 = LINE ( 'NONE', #338, #581 ) ;
#972 = ORIENTED_EDGE ( 'NONE', *, *, #194, .T. ) ;
#973 = SURFACE_STYLE_FILL_AREA ( #726 ) ;
#974 = SURFACE_STYLE_USAGE ( .BOTH. , #1070 ) ;
#975 = SURFACE_STYLE_FILL_AREA ( #164 ) ;
#976 = VERTEX_POINT ( 'NONE', #99 ) ;
#977 = LINE ( 'NONE', #720, #778 ) ;
#978 = LINE ( 'NONE', #458, #449 ) ;
#979 =( GEOMETRIC_REPRESENTATION_CONTEXT ( 3 ) GLOBAL_UNCERTAINTY_ASSIGNED_CONTEXT ( ( #739 ) ) GLOBAL_UNIT_ASSIGNED_CONTEXT ( ( #713, #723, #989 ) ) REPRESENTATION_CONTEXT ( 'NONE', 'WORKASPACE' ) );
#980 = COLOUR_RGB ( '',0.9764705882352940902, 0.9764705882352940902, 0.9764705882352940902 ) ;
#981 = CARTESIAN_POINT ( 'NONE',  ( 3.150000000000010125, -10.30000000000000071, 0.8000000000000000444 ) ) ;
#982 = AXIS2_PLACEMENT_3D ( 'NONE', #189, #250, #115 ) ;
#983 = CARTESIAN_POINT ( 'NONE',  ( 2.400000000000000355, 2.200000000000000622, 0.8000000000000000444 ) ) ;
#984 = STYLED_ITEM ( 'NONE', ( #679 ), #1091 ) ;
#985 = PRODUCT_DEFINITION_FORMATION_WITH_SPECIFIED_SOURCE ( 'ANY', '', #1120, .NOT_KNOWN. ) ;
#986 = SURFACE_STYLE_USAGE ( .BOTH. , #637 ) ;
#987 = CARTESIAN_POINT ( 'NONE',  ( -2.649999999999990141, -10.30000000000000071, 0.8000000000000000444 ) ) ;
#988 = SURFACE_STYLE_FILL_AREA ( #999 ) ;
#989 =( NAMED_UNIT ( * ) SI_UNIT ( $, .STERADIAN. ) SOLID_ANGLE_UNIT ( ) );
#990 = EDGE_CURVE ( 'NONE', #559, #162, #443, .T. ) ;
#991 = FILL_AREA_STYLE_COLOUR ( '', #307 ) ;
#992 = UNCERTAINTY_MEASURE_WITH_UNIT (LENGTH_MEASURE( 1.000000000000000082E-05 ), #820, 'distance_accuracy_value', 'NONE');
#993 = ORIENTED_EDGE ( 'NONE', *, *, #1076, .F. ) ;
#994 = PRESENTATION_STYLE_ASSIGNMENT (( #642 ) ) ;
#995 = CARTESIAN_POINT ( 'NONE',  ( 2.650000000000010125, -10.30000000000000071, 0.8000000000000000444 ) ) ;
#996 = DIRECTION ( 'NONE',  ( 0.0000000000000000000, 0.0000000000000000000, 1.000000000000000000 ) ) ;
#997 = ORIENTED_EDGE ( 'NONE', *, *, #553, .T. ) ;
#998 = AXIS2_PLACEMENT_3D ( 'NONE', #321, #1052, #180 ) ;
#999 = FILL_AREA_STYLE ('',( #383 ) ) ;
#1000 = EDGE_LOOP ( 'NONE', ( #575, #1050, #325, #1136 ) ) ;
#1001 = SURFACE_SIDE_STYLE ('',( #380 ) ) ;
#1002 = EDGE_CURVE ( 'NONE', #764, #1, #415, .T. ) ;
#1003 = LINE ( 'NONE', #209, #938 ) ;
#1004 = DIRECTION ( 'NONE',  ( -0.0000000000000000000, -0.0000000000000000000, -1.000000000000000000 ) ) ;
#1005 = DIRECTION ( 'NONE',  ( -1.000000000000000000, 0.0000000000000000000, 0.0000000000000000000 ) ) ;
#1006 = UNCERTAINTY_MEASURE_WITH_UNIT (LENGTH_MEASURE( 1.000000000000000082E-05 ), #101, 'distance_accuracy_value', 'NONE');
#1007 = ORIENTED_EDGE ( 'NONE', *, *, #418, .T. ) ;
#1008 =( NAMED_UNIT ( * ) PLANE_ANGLE_UNIT ( ) SI_UNIT ( $, .RADIAN. ) );
#1009 = SURFACE_STYLE_FILL_AREA ( #51 ) ;
#1010 = VECTOR ( 'NONE', #643, 1000.000000000000000 ) ;
#1011 = EDGE_CURVE ( 'NONE', #256, #526, #124, .T. ) ;
#1012 = MECHANICAL_DESIGN_GEOMETRIC_PRESENTATION_REPRESENTATION (  '', ( #15 ), #426 ) ;
#1013 = CYLINDRICAL_SURFACE ( 'NONE', #998, 0.5000000000000000000 ) ;
#1014 = EDGE_LOOP ( 'NONE', ( #829, #492, #252, #936 ) ) ;
#1015 = MECHANICAL_DESIGN_GEOMETRIC_PRESENTATION_REPRESENTATION (  '', ( #375 ), #120 ) ;
#1016 = MECHANICAL_DESIGN_GEOMETRIC_PRESENTATION_REPRESENTATION (  '', ( #376 ), #619 ) ;
#1017 = FILL_AREA_STYLE_COLOUR ( '', #617 ) ;
#1018 = ORIENTED_EDGE ( 'NONE', *, *, #715, .F. ) ;
#1019 = SURFACE_STYLE_FILL_AREA ( #142 ) ;
#1020 = DIRECTION ( 'NONE',  ( -0.0000000000000000000, 1.000000000000000000, 0.0000000000000000000 ) ) ;
#1021 = FILL_AREA_STYLE ('',( #287 ) ) ;
#1022 = ORIENTED_EDGE ( 'NONE', *, *, #800, .F. ) ;
#1023 = EDGE_CURVE ( 'NONE', #398, #30, #731, .T. ) ;
#1024 = CARTESIAN_POINT ( 'NONE',  ( -2.635224949397759975, -10.30000000000000071, 0.0000000000000000000 ) ) ;
#1025 = ORIENTED_EDGE ( 'NONE', *, *, #418, .F. ) ;
#1026 =( NAMED_UNIT ( * ) SI_UNIT ( $, .STERADIAN. ) SOLID_ANGLE_UNIT ( ) );
#1027 = LINE ( 'NONE', #243, #166 ) ;
#1028 =( GEOMETRIC_REPRESENTATION_CONTEXT ( 3 ) GLOBAL_UNCERTAINTY_ASSIGNED_CONTEXT ( ( #344 ) ) GLOBAL_UNIT_ASSIGNED_CONTEXT ( ( #681, #846, #582 ) ) REPRESENTATION_CONTEXT ( 'NONE', 'WORKASPACE' ) );
#1029 = EDGE_LOOP ( 'NONE', ( #1088, #683 ) ) ;
#1030 = MECHANICAL_DESIGN_GEOMETRIC_PRESENTATION_REPRESENTATION (  '', ( #548 ), #672 ) ;
#1031 = PLANE ( 'NONE',  #505 ) ;
#1032 = FILL_AREA_STYLE ('',( #1017 ) ) ;
#1033 = ADVANCED_FACE ( 'NONE', ( #276 ), #661, .F. ) ;
#1034 = ORIENTED_EDGE ( 'NONE', *, *, #748, .T. ) ;
#1035 =( GEOMETRIC_REPRESENTATION_CONTEXT ( 3 ) GLOBAL_UNCERTAINTY_ASSIGNED_CONTEXT ( ( #743 ) ) GLOBAL_UNIT_ASSIGNED_CONTEXT ( ( #896, #454, #119 ) ) REPRESENTATION_CONTEXT ( 'NONE', 'WORKASPACE' ) );
#1036 = DIRECTION ( 'NONE',  ( -1.000000000000000000, -0.0000000000000000000, 0.0000000000000000000 ) ) ;
#1037 = DIRECTION ( 'NONE',  ( 0.0000000000000000000, 0.0000000000000000000, 1.000000000000000000 ) ) ;
#1038 = PRESENTATION_STYLE_ASSIGNMENT (( #165 ) ) ;
#1039 =( NAMED_UNIT ( * ) SI_UNIT ( $, .STERADIAN. ) SOLID_ANGLE_UNIT ( ) );
#1040 = CARTESIAN_POINT ( 'NONE',  ( 2.399999999999999911, 2.200000000000000178, 0.8000000000000000444 ) ) ;
#1041 = FILL_AREA_STYLE_COLOUR ( '', #750 ) ;
#1042 = CARTESIAN_POINT ( 'NONE',  ( -2.649999999999990141, -4.599999999999999645, 0.8000000000000000444 ) ) ;
#1043 = LINE ( 'NONE', #614, #405 ) ;
#1044 = LINE ( 'NONE', #956, #137 ) ;
#1045 = EDGE_LOOP ( 'NONE', ( #618, #649, #653, #116 ) ) ;
#1046 = DIRECTION ( 'NONE',  ( 0.0000000000000000000, 0.0000000000000000000, 1.000000000000000000 ) ) ;
#1047 = DIRECTION ( 'NONE',  ( 0.0000000000000000000, 0.0000000000000000000, 1.000000000000000000 ) ) ;
#1048 = MANIFOLD_SOLID_BREP ( '1', #560 ) ;
#1049 = UNCERTAINTY_MEASURE_WITH_UNIT (LENGTH_MEASURE( 1.000000000000000082E-05 ), #1083, 'distance_accuracy_value', 'NONE');
#1050 = ORIENTED_EDGE ( 'NONE', *, *, #740, .F. ) ;
#1051 = CARTESIAN_POINT ( 'NONE',  ( -1.999999999999999556, -5.799999999999998934, -1.445602896647339163E-16 ) ) ;
#1052 = DIRECTION ( 'NONE',  ( 0.0000000000000000000, 0.0000000000000000000, 1.000000000000000000 ) ) ;
#1053 = ORIENTED_EDGE ( 'NONE', *, *, #126, .T. ) ;
#1054 = PRESENTATION_LAYER_ASSIGNMENT (  '', '', ( #671 ) ) ;
#1055 = DIRECTION ( 'NONE',  ( 0.02998650910567246183, -0.9995503035223666233, 0.0000000000000000000 ) ) ;
#1056 = VECTOR ( 'NONE', #822, 1000.000000000000000 ) ;
#1057 =( NAMED_UNIT ( * ) PLANE_ANGLE_UNIT ( ) SI_UNIT ( $, .RADIAN. ) );
#1058 = MECHANICAL_DESIGN_GEOMETRIC_PRESENTATION_REPRESENTATION (  '', ( #333 ), #852 ) ;
#1059 = DIRECTION ( 'NONE',  ( 1.000000000000000000, 0.0000000000000000000, 0.0000000000000000000 ) ) ;
#1060 = AXIS2_PLACEMENT_3D ( 'NONE', #409, #842, #140 ) ;
#1061 = SURFACE_SIDE_STYLE ('',( #600 ) ) ;
#1062 = EDGE_CURVE ( 'NONE', #596, #472, #310, .T. ) ;
#1063 = ORIENTED_EDGE ( 'NONE', *, *, #457, .F. ) ;
#1064 = SURFACE_SIDE_STYLE ('',( #973 ) ) ;
#1065 = CYLINDRICAL_SURFACE ( 'NONE', #373, 0.5000000000000000000 ) ;
#1066 = SURFACE_SIDE_STYLE ('',( #975 ) ) ;
#1067 = ORIENTED_EDGE ( 'NONE', *, *, #69, .F. ) ;
#1068 = DIRECTION ( 'NONE',  ( -0.0000000000000000000, -0.0000000000000000000, -1.000000000000000000 ) ) ;
#1069 = EDGE_CURVE ( 'NONE', #472, #596, #1107, .T. ) ;
#1070 = SURFACE_SIDE_STYLE ('',( #185 ) ) ;
#1071 = CARTESIAN_POINT ( 'NONE',  ( -2.135449797636579827, -10.31499325455279958, -4.336808689942017736E-16 ) ) ;
#1072 = CARTESIAN_POINT ( 'NONE',  ( -2.399999999999999911, -4.599999999999999645, 0.8000000000000000444 ) ) ;
#1073 = CARTESIAN_POINT ( 'NONE',  ( -1.750000000000000000, 3.000000000000000000, 0.8000000000000000444 ) ) ;
#1074 = CYLINDRICAL_SURFACE ( 'NONE', #106, 0.5000000000000000000 ) ;
#1075 = AXIS2_PLACEMENT_3D ( 'NONE', #995, #361, #198 ) ;
#1076 = EDGE_CURVE ( 'NONE', #500, #583, #836, .T. ) ;
#1077 = MECHANICAL_DESIGN_GEOMETRIC_PRESENTATION_REPRESENTATION (  '', ( #671 ), #578 ) ;
#1078 = PRESENTATION_STYLE_ASSIGNMENT (( #651 ) ) ;
#1079 = DIRECTION ( 'NONE',  ( -0.0000000000000000000, -0.0000000000000000000, 1.000000000000000000 ) ) ;
#1080 =( GEOMETRIC_REPRESENTATION_CONTEXT ( 3 ) GLOBAL_UNCERTAINTY_ASSIGNED_CONTEXT ( ( #129 ) ) GLOBAL_UNIT_ASSIGNED_CONTEXT ( ( #323, #341, #607 ) ) REPRESENTATION_CONTEXT ( 'NONE', 'WORKASPACE' ) );
#1081 = ORIENTED_EDGE ( 'NONE', *, *, #682, .F. ) ;
#1082 = PRESENTATION_LAYER_ASSIGNMENT (  '', '', ( #108 ) ) ;
#1083 =( LENGTH_UNIT ( ) NAMED_UNIT ( * ) SI_UNIT ( .MILLI., .METRE. ) );
#1084 = CYLINDRICAL_SURFACE ( 'NONE', #63, 0.5000000000000000000 ) ;
#1085 = DIRECTION ( 'NONE',  ( 1.000000000000000000, 0.0000000000000000000, 0.0000000000000000000 ) ) ;
#1086 = ORIENTED_EDGE ( 'NONE', *, *, #630, .F. ) ;
#1087 = DIRECTION ( 'NONE',  ( 0.0000000000000000000, 1.000000000000000000, 0.0000000000000000000 ) ) ;
#1088 = ORIENTED_EDGE ( 'NONE', *, *, #1069, .T. ) ;
#1089 =( NAMED_UNIT ( * ) SI_UNIT ( $, .STERADIAN. ) SOLID_ANGLE_UNIT ( ) );
#1090 = ORIENTED_EDGE ( 'NONE', *, *, #1062, .F. ) ;
#1091 = ADVANCED_FACE ( 'NONE', ( #67 ), #502, .T. ) ;
#1092 = PLANE ( 'NONE',  #47 ) ;
#1093 = COLOUR_RGB ( '',0.9764705882352940902, 0.9764705882352940902, 0.9764705882352940902 ) ;
#1094 =( GEOMETRIC_REPRESENTATION_CONTEXT ( 3 ) GLOBAL_UNCERTAINTY_ASSIGNED_CONTEXT ( ( #231 ) ) GLOBAL_UNIT_ASSIGNED_CONTEXT ( ( #154, #524, #70 ) ) REPRESENTATION_CONTEXT ( 'NONE', 'WORKASPACE' ) );
#1095 = FACE_OUTER_BOUND ( 'NONE', #74, .T. ) ;
#1096 =( NAMED_UNIT ( * ) SI_UNIT ( $, .STERADIAN. ) SOLID_ANGLE_UNIT ( ) );
#1097 = PRESENTATION_STYLE_ASSIGNMENT (( #493 ) ) ;
#1098 = EDGE_LOOP ( 'NONE', ( #46, #1018, #858, #547 ) ) ;
#1099 =( NAMED_UNIT ( * ) PLANE_ANGLE_UNIT ( ) SI_UNIT ( $, .RADIAN. ) );
#1100 = ORIENTED_EDGE ( 'NONE', *, *, #100, .T. ) ;
#1101 = CARTESIAN_POINT ( 'NONE',  ( 2.399999999999999911, -4.599999999999999645, 0.0000000000000000000 ) ) ;
#1102 = ADVANCED_FACE ( 'NONE', ( #1108, #53 ), #313, .F. ) ;
#1103 = VECTOR ( 'NONE', #521, 1000.000000000000000 ) ;
#1104 = STYLED_ITEM ( 'NONE', ( #625 ), #404 ) ;
#1105 = VERTEX_POINT ( 'NONE', #172 ) ;
#1106 = AXIS2_PLACEMENT_3D ( 'NONE', #523, #587, #144 ) ;
#1107 = CIRCLE ( 'NONE', #856, 0.5999999999999999778 ) ;
#1108 = FACE_BOUND ( 'NONE', #132, .T. ) ;
#1109 = SURFACE_STYLE_USAGE ( .BOTH. , #211 ) ;
#1110 =( NAMED_UNIT ( * ) PLANE_ANGLE_UNIT ( ) SI_UNIT ( $, .RADIAN. ) );
#1111 = DIRECTION ( 'NONE',  ( 0.0000000000000000000, 0.0000000000000000000, -1.000000000000000000 ) ) ;
#1112 =( LENGTH_UNIT ( ) NAMED_UNIT ( * ) SI_UNIT ( .MILLI., .METRE. ) );
#1113 = ORIENTED_EDGE ( 'NONE', *, *, #629, .F. ) ;
#1114 = SURFACE_STYLE_FILL_AREA ( #853 ) ;
#1115 =( NAMED_UNIT ( * ) PLANE_ANGLE_UNIT ( ) SI_UNIT ( $, .RADIAN. ) );
#1116 = ADVANCED_FACE ( 'NONE', ( #970 ), #797, .T. ) ;
#1117 = ORIENTED_EDGE ( 'NONE', *, *, #181, .T. ) ;
#1118 = FILL_AREA_STYLE_COLOUR ( '', #749 ) ;
#1119 = SURFACE_STYLE_FILL_AREA ( #230 ) ;
#1120 = PRODUCT ( '00D044B3-B273-4A4A-B127-AA5B5EA364E7', '00D044B3-B273-4A4A-B127-AA5B5EA364E7', '', ( #382 ) ) ;
#1121 = PRESENTATION_STYLE_ASSIGNMENT (( #239 ) ) ;
#1122 = DIRECTION ( 'NONE',  ( 0.0000000000000000000, 0.0000000000000000000, -1.000000000000000000 ) ) ;
#1123 = CARTESIAN_POINT ( 'NONE',  ( -2.399999999999999911, 2.200000000000000178, 0.0000000000000000000 ) ) ;
#1124 = MECHANICAL_DESIGN_GEOMETRIC_PRESENTATION_REPRESENTATION (  '', ( #213 ), #979 ) ;
#1125 = ORIENTED_EDGE ( 'NONE', *, *, #553, .F. ) ;
#1126 = DIRECTION ( 'NONE',  ( -1.000000000000000000, -0.0000000000000000000, 0.0000000000000000000 ) ) ;
#1127 = STYLED_ITEM ( 'NONE', ( #1129 ), #417 ) ;
#1128 = CIRCLE ( 'NONE', #133, 0.5999999999999999778 ) ;
#1129 = PRESENTATION_STYLE_ASSIGNMENT (( #212 ) ) ;
#1130 = ORIENTED_EDGE ( 'NONE', *, *, #514, .F. ) ;
#1131 = PRESENTATION_LAYER_ASSIGNMENT (  '', '', ( #308 ) ) ;
#1132 =( NAMED_UNIT ( * ) PLANE_ANGLE_UNIT ( ) SI_UNIT ( $, .RADIAN. ) );
#1133 = STYLED_ITEM ( 'NONE', ( #640 ), #1033 ) ;
#1134 = SURFACE_STYLE_FILL_AREA ( #777 ) ;
#1135 = FILL_AREA_STYLE ('',( #609 ) ) ;
#1136 = ORIENTED_EDGE ( 'NONE', *, *, #787, .F. ) ;
ENDSEC;
END-ISO-10303-21;
