ISO-10303-21;
HEADER;
FILE_DESCRIPTION(('STEP AP203'),'1');
FILE_NAME('74270151.stp','2021-06-28T15:04:01',('TraceParts'),('TraceParts S.A.'),'Spatial InterOp 3D',' ',' ');
FILE_SCHEMA(('CONFIG_CONTROL_DESIGN'));
ENDSEC;
DATA;
#1=DESIGN_CONTEXT('',#27,'design');
#2=APPLICATION_PROTOCOL_DEFINITION('INTERNATIONAL STANDARD','config_control_design',1994,#27);
#3=PRODUCT_CATEGORY_RELATIONSHIP('NONE','NONE',#28,#29);
#4=DATE_AND_TIME(#30,#31);
#5=DATE_TIME_ROLE('creation_date');
#6=DATE_TIME_ROLE('classification_date');
#7=PERSON_AND_ORGANIZATION_ROLE('creator');
#8=PERSON_AND_ORGANIZATION_ROLE('design_supplier');
#9=PERSON_AND_ORGANIZATION_ROLE('classification_officer');
#10=PERSON_AND_ORGANIZATION_ROLE('design_owner');
#11=APPROVAL_PERSON_ORGANIZATION(#32,#33,#34);
#12=APPROVAL_DATE_TIME(#4,#33);
#13=CC_DESIGN_APPROVAL(#33,(#35,#36,#37));
#14=CC_DESIGN_DATE_AND_TIME_ASSIGNMENT(#4,#5,(#37));
#15=CC_DESIGN_DATE_AND_TIME_ASSIGNMENT(#4,#6,(#35));
#16=CC_DESIGN_PERSON_AND_ORGANIZATION_ASSIGNMENT(#32,#10,(#38));
#17=CC_DESIGN_PERSON_AND_ORGANIZATION_ASSIGNMENT(#32,#7,(#37));
#18=CC_DESIGN_PERSON_AND_ORGANIZATION_ASSIGNMENT(#32,#7,(#36));
#19=CC_DESIGN_PERSON_AND_ORGANIZATION_ASSIGNMENT(#32,#8,(#36));
#20=CC_DESIGN_SECURITY_CLASSIFICATION(#35,(#36));
#21=CC_DESIGN_PERSON_AND_ORGANIZATION_ASSIGNMENT(#32,#9,(#35));
#22=SHAPE_DEFINITION_REPRESENTATION(#39,#40);
#23= (GEOMETRIC_REPRESENTATION_CONTEXT(3)GLOBAL_UNCERTAINTY_ASSIGNED_CONTEXT((#43))GLOBAL_UNIT_ASSIGNED_CONTEXT((#45,#46,#47))REPRESENTATION_CONTEXT('NONE','WORKSPACE'));
#27=APPLICATION_CONTEXT('CONFIGURATION CONTROLLED 3D DESIGNS OF MECHANICAL PARTS AND ASSEMBLIES');
#28=PRODUCT_CATEGORY('part','NONE');
#29=PRODUCT_RELATED_PRODUCT_CATEGORY('detail',' ',(#38));
#30=CALENDAR_DATE(2021,28,5);
#31=LOCAL_TIME(17,4,1.0,#49);
#32=PERSON_AND_ORGANIZATION(#50,#51);
#33=APPROVAL(#52,'SOLID MODEL');
#34=APPROVAL_ROLE('APPROVED');
#35=SECURITY_CLASSIFICATION('','',#53);
#36=PRODUCT_DEFINITION_FORMATION_WITH_SPECIFIED_SOURCE(' ','NONE',#38,.NOT_KNOWN.);
#37=PRODUCT_DEFINITION('','NONE',#36,#1);
#38=PRODUCT('1','','PART--DESC',(#54));
#39=PRODUCT_DEFINITION_SHAPE('NONE','NONE',#37);
#40=ADVANCED_BREP_SHAPE_REPRESENTATION('1',(#55,#56),#23);
#43=UNCERTAINTY_MEASURE_WITH_UNIT(LENGTH_MEASURE(1.0E-06),#45,'','');
#45= (CONVERSION_BASED_UNIT('MILLIMETRE',#59)LENGTH_UNIT()NAMED_UNIT(#62));
#46= (NAMED_UNIT(#64)PLANE_ANGLE_UNIT()SI_UNIT($,.RADIAN.));
#47= (NAMED_UNIT(#64)SOLID_ANGLE_UNIT()SI_UNIT($,.STERADIAN.));
#49=COORDINATED_UNIVERSAL_TIME_OFFSET(1,0,.AHEAD.);
#50=PERSON('','UNSPECIFIED',$,$,$,$);
#51=ORGANIZATION('UNSPECIFIED','UNSPECIFIED','UNSPECIFIED');
#52=APPROVAL_STATUS('approved');
#53=SECURITY_CLASSIFICATION_LEVEL('unclassified');
#54=MECHANICAL_CONTEXT('',#27,'mechanical');
#55=MANIFOLD_SOLID_BREP('1',#70);
#56=AXIS2_PLACEMENT_3D('',#71,#72,#73);
#59=LENGTH_MEASURE_WITH_UNIT(LENGTH_MEASURE(1.0),#74);
#62=DIMENSIONAL_EXPONENTS(1.0,0.0,0.0,0.0,0.0,0.0,0.0);
#64=DIMENSIONAL_EXPONENTS(0.0,0.0,0.0,0.0,0.0,0.0,0.0);
#70=CLOSED_SHELL('',(#75,#76,#77,#78,#79,#80,#81,#82,#83,#84,#85,#86,#87,#88));
#71=CARTESIAN_POINT('',(0.0,0.0,0.0));
#72=DIRECTION('',(0.0,0.0,1.0));
#73=DIRECTION('',(1.0,0.0,0.0));
#74= (NAMED_UNIT(#62)LENGTH_UNIT()SI_UNIT(.MILLI.,.METRE.));
#75=ADVANCED_FACE('',(#90),#91,.T.);
#76=ADVANCED_FACE('',(#92),#93,.T.);
#77=ADVANCED_FACE('',(#94),#95,.T.);
#78=ADVANCED_FACE('',(#96),#97,.T.);
#79=ADVANCED_FACE('',(#98),#99,.T.);
#80=ADVANCED_FACE('',(#100),#101,.F.);
#81=ADVANCED_FACE('',(#102),#103,.F.);
#82=ADVANCED_FACE('',(#104),#105,.T.);
#83=ADVANCED_FACE('',(#106),#107,.T.);
#84=ADVANCED_FACE('',(#108),#109,.T.);
#85=ADVANCED_FACE('',(#110),#111,.T.);
#86=ADVANCED_FACE('',(#112,#113),#114,.T.);
#87=ADVANCED_FACE('',(#115),#116,.T.);
#88=ADVANCED_FACE('',(#117,#118),#119,.F.);
#90=FACE_OUTER_BOUND('',#120,.T.);
#91=TOROIDAL_SURFACE('',#121,17.1,0.2);
#92=FACE_OUTER_BOUND('',#122,.T.);
#93=TOROIDAL_SURFACE('',#123,10.6,0.2);
#94=FACE_OUTER_BOUND('',#124,.T.);
#95=TOROIDAL_SURFACE('',#125,17.1,0.2);
#96=FACE_OUTER_BOUND('',#126,.T.);
#97=CYLINDRICAL_SURFACE('',#127,17.3);
#98=FACE_OUTER_BOUND('',#128,.T.);
#99=TOROIDAL_SURFACE('',#129,10.6,0.2);
#100=FACE_OUTER_BOUND('',#130,.T.);
#101=CYLINDRICAL_SURFACE('',#131,10.4);
#102=FACE_OUTER_BOUND('',#132,.T.);
#103=CYLINDRICAL_SURFACE('',#133,10.4);
#104=FACE_OUTER_BOUND('',#134,.T.);
#105=TOROIDAL_SURFACE('',#135,10.6,0.2);
#106=FACE_OUTER_BOUND('',#136,.T.);
#107=CYLINDRICAL_SURFACE('',#137,17.3);
#108=FACE_OUTER_BOUND('',#138,.T.);
#109=TOROIDAL_SURFACE('',#139,17.1,0.2);
#110=FACE_OUTER_BOUND('',#140,.T.);
#111=TOROIDAL_SURFACE('',#141,10.6,0.2);
#112=FACE_OUTER_BOUND('',#142,.T.);
#113=FACE_BOUND('',#143,.T.);
#114=PLANE('',#144);
#115=FACE_OUTER_BOUND('',#145,.T.);
#116=TOROIDAL_SURFACE('',#146,17.1,0.2);
#117=FACE_OUTER_BOUND('',#147,.T.);
#118=FACE_BOUND('',#148,.T.);
#119=PLANE('',#149);
#120=EDGE_LOOP('',(#150,#151,#152,#153));
#121=AXIS2_PLACEMENT_3D('',#154,#155,#156);
#122=EDGE_LOOP('',(#157,#158,#159,#160));
#123=AXIS2_PLACEMENT_3D('',#161,#162,#163);
#124=EDGE_LOOP('',(#164,#165,#166,#167));
#125=AXIS2_PLACEMENT_3D('',#168,#169,#170);
#126=EDGE_LOOP('',(#171,#172,#173,#174));
#127=AXIS2_PLACEMENT_3D('',#175,#176,#177);
#128=EDGE_LOOP('',(#178,#179,#180,#181));
#129=AXIS2_PLACEMENT_3D('',#182,#183,#184);
#130=EDGE_LOOP('',(#185,#186,#187,#188));
#131=AXIS2_PLACEMENT_3D('',#189,#190,#191);
#132=EDGE_LOOP('',(#192,#193,#194,#195));
#133=AXIS2_PLACEMENT_3D('',#196,#197,#198);
#134=EDGE_LOOP('',(#199,#200,#201,#202));
#135=AXIS2_PLACEMENT_3D('',#203,#204,#205);
#136=EDGE_LOOP('',(#206,#207,#208,#209));
#137=AXIS2_PLACEMENT_3D('',#210,#211,#212);
#138=EDGE_LOOP('',(#213,#214,#215,#216));
#139=AXIS2_PLACEMENT_3D('',#217,#218,#219);
#140=EDGE_LOOP('',(#220,#221,#222,#223));
#141=AXIS2_PLACEMENT_3D('',#224,#225,#226);
#142=EDGE_LOOP('',(#227,#228));
#143=EDGE_LOOP('',(#229,#230));
#144=AXIS2_PLACEMENT_3D('',#231,#232,#233);
#145=EDGE_LOOP('',(#234,#235,#236,#237));
#146=AXIS2_PLACEMENT_3D('',#238,#239,#240);
#147=EDGE_LOOP('',(#241,#242));
#148=EDGE_LOOP('',(#243,#244));
#149=AXIS2_PLACEMENT_3D('',#245,#246,#247);
#150=ORIENTED_EDGE('',*,*,#248,.F.);
#151=ORIENTED_EDGE('',*,*,#249,.F.);
#152=ORIENTED_EDGE('',*,*,#250,.F.);
#153=ORIENTED_EDGE('',*,*,#251,.F.);
#154=CARTESIAN_POINT('',(0.0,6.15,0.0));
#155=DIRECTION('',(0.0,1.0,0.0));
#156=DIRECTION('',(0.0,0.0,1.0));
#157=ORIENTED_EDGE('',*,*,#252,.F.);
#158=ORIENTED_EDGE('',*,*,#253,.F.);
#159=ORIENTED_EDGE('',*,*,#254,.F.);
#160=ORIENTED_EDGE('',*,*,#255,.F.);
#161=CARTESIAN_POINT('',(0.0,6.15,0.0));
#162=DIRECTION('',(0.0,1.0,0.0));
#163=DIRECTION('',(0.0,0.0,1.0));
#164=ORIENTED_EDGE('',*,*,#256,.F.);
#165=ORIENTED_EDGE('',*,*,#257,.F.);
#166=ORIENTED_EDGE('',*,*,#258,.F.);
#167=ORIENTED_EDGE('',*,*,#259,.F.);
#168=CARTESIAN_POINT('',(0.0,-6.15,0.0));
#169=DIRECTION('',(0.0,1.0,0.0));
#170=DIRECTION('',(0.0,0.0,1.0));
#171=ORIENTED_EDGE('',*,*,#260,.F.);
#172=ORIENTED_EDGE('',*,*,#261,.T.);
#173=ORIENTED_EDGE('',*,*,#262,.F.);
#174=ORIENTED_EDGE('',*,*,#263,.T.);
#175=CARTESIAN_POINT('',(0.0,-6.35,0.0));
#176=DIRECTION('',(0.0,1.0,-0.0));
#177=DIRECTION('',(0.0,0.0,1.0));
#178=ORIENTED_EDGE('',*,*,#264,.F.);
#179=ORIENTED_EDGE('',*,*,#265,.F.);
#180=ORIENTED_EDGE('',*,*,#266,.F.);
#181=ORIENTED_EDGE('',*,*,#267,.F.);
#182=CARTESIAN_POINT('',(0.0,-6.15,0.0));
#183=DIRECTION('',(0.0,1.0,0.0));
#184=DIRECTION('',(0.0,0.0,1.0));
#185=ORIENTED_EDGE('',*,*,#268,.F.);
#186=ORIENTED_EDGE('',*,*,#269,.T.);
#187=ORIENTED_EDGE('',*,*,#270,.F.);
#188=ORIENTED_EDGE('',*,*,#271,.T.);
#189=CARTESIAN_POINT('',(0.0,-6.35,0.0));
#190=DIRECTION('',(0.0,1.0,-0.0));
#191=DIRECTION('',(0.0,0.0,1.0));
#192=ORIENTED_EDGE('',*,*,#268,.T.);
#193=ORIENTED_EDGE('',*,*,#255,.T.);
#194=ORIENTED_EDGE('',*,*,#270,.T.);
#195=ORIENTED_EDGE('',*,*,#265,.T.);
#196=CARTESIAN_POINT('',(0.0,-6.35,0.0));
#197=DIRECTION('',(0.0,1.0,-0.0));
#198=DIRECTION('',(0.0,0.0,1.0));
#199=ORIENTED_EDGE('',*,*,#264,.T.);
#200=ORIENTED_EDGE('',*,*,#272,.F.);
#201=ORIENTED_EDGE('',*,*,#266,.T.);
#202=ORIENTED_EDGE('',*,*,#269,.F.);
#203=CARTESIAN_POINT('',(0.0,-6.15,0.0));
#204=DIRECTION('',(0.0,1.0,0.0));
#205=DIRECTION('',(0.0,0.0,1.0));
#206=ORIENTED_EDGE('',*,*,#260,.T.);
#207=ORIENTED_EDGE('',*,*,#259,.T.);
#208=ORIENTED_EDGE('',*,*,#262,.T.);
#209=ORIENTED_EDGE('',*,*,#249,.T.);
#210=CARTESIAN_POINT('',(0.0,-6.35,0.0));
#211=DIRECTION('',(0.0,1.0,-0.0));
#212=DIRECTION('',(0.0,0.0,1.0));
#213=ORIENTED_EDGE('',*,*,#256,.T.);
#214=ORIENTED_EDGE('',*,*,#263,.F.);
#215=ORIENTED_EDGE('',*,*,#258,.T.);
#216=ORIENTED_EDGE('',*,*,#273,.F.);
#217=CARTESIAN_POINT('',(0.0,-6.15,0.0));
#218=DIRECTION('',(0.0,1.0,0.0));
#219=DIRECTION('',(0.0,0.0,1.0));
#220=ORIENTED_EDGE('',*,*,#252,.T.);
#221=ORIENTED_EDGE('',*,*,#271,.F.);
#222=ORIENTED_EDGE('',*,*,#254,.T.);
#223=ORIENTED_EDGE('',*,*,#274,.F.);
#224=CARTESIAN_POINT('',(0.0,6.15,0.0));
#225=DIRECTION('',(0.0,1.0,0.0));
#226=DIRECTION('',(0.0,0.0,1.0));
#227=ORIENTED_EDGE('',*,*,#251,.T.);
#228=ORIENTED_EDGE('',*,*,#275,.T.);
#229=ORIENTED_EDGE('',*,*,#274,.T.);
#230=ORIENTED_EDGE('',*,*,#253,.T.);
#231=CARTESIAN_POINT('',(0.0,6.35,0.0));
#232=DIRECTION('',(-0.0,1.0,0.0));
#233=DIRECTION('',(1.0,0.0,0.0));
#234=ORIENTED_EDGE('',*,*,#248,.T.);
#235=ORIENTED_EDGE('',*,*,#275,.F.);
#236=ORIENTED_EDGE('',*,*,#250,.T.);
#237=ORIENTED_EDGE('',*,*,#261,.F.);
#238=CARTESIAN_POINT('',(0.0,6.15,0.0));
#239=DIRECTION('',(0.0,1.0,0.0));
#240=DIRECTION('',(0.0,0.0,1.0));
#241=ORIENTED_EDGE('',*,*,#273,.T.);
#242=ORIENTED_EDGE('',*,*,#257,.T.);
#243=ORIENTED_EDGE('',*,*,#267,.T.);
#244=ORIENTED_EDGE('',*,*,#272,.T.);
#245=CARTESIAN_POINT('',(0.0,-6.35,0.0));
#246=DIRECTION('',(-0.0,1.0,0.0));
#247=DIRECTION('',(1.0,0.0,0.0));
#248=EDGE_CURVE('',#276,#277,#278,.T.);
#249=EDGE_CURVE('',#279,#276,#280,.F.);
#250=EDGE_CURVE('',#281,#279,#282,.T.);
#251=EDGE_CURVE('',#277,#281,#283,.T.);
#252=EDGE_CURVE('',#284,#285,#286,.T.);
#253=EDGE_CURVE('',#287,#284,#288,.F.);
#254=EDGE_CURVE('',#289,#287,#290,.T.);
#255=EDGE_CURVE('',#285,#289,#291,.T.);
#256=EDGE_CURVE('',#292,#293,#294,.T.);
#257=EDGE_CURVE('',#295,#292,#296,.F.);
#258=EDGE_CURVE('',#297,#295,#298,.T.);
#259=EDGE_CURVE('',#293,#297,#299,.T.);
#260=EDGE_CURVE('',#276,#293,#300,.T.);
#261=EDGE_CURVE('',#276,#279,#301,.F.);
#262=EDGE_CURVE('',#297,#279,#302,.T.);
#263=EDGE_CURVE('',#297,#293,#303,.T.);
#264=EDGE_CURVE('',#304,#305,#306,.T.);
#265=EDGE_CURVE('',#307,#304,#308,.F.);
#266=EDGE_CURVE('',#309,#307,#310,.T.);
#267=EDGE_CURVE('',#305,#309,#311,.T.);
#268=EDGE_CURVE('',#304,#285,#312,.T.);
#269=EDGE_CURVE('',#304,#307,#313,.F.);
#270=EDGE_CURVE('',#289,#307,#314,.T.);
#271=EDGE_CURVE('',#289,#285,#315,.T.);
#272=EDGE_CURVE('',#309,#305,#316,.T.);
#273=EDGE_CURVE('',#292,#295,#317,.F.);
#274=EDGE_CURVE('',#284,#287,#318,.F.);
#275=EDGE_CURVE('',#281,#277,#319,.T.);
#276=VERTEX_POINT('',#320);
#277=VERTEX_POINT('',#321);
#278=CIRCLE('',#322,0.2);
#279=VERTEX_POINT('',#323);
#280=CIRCLE('',#324,17.3);
#281=VERTEX_POINT('',#325);
#282=CIRCLE('',#326,0.2);
#283=CIRCLE('',#327,17.1);
#284=VERTEX_POINT('',#328);
#285=VERTEX_POINT('',#329);
#286=CIRCLE('',#330,0.2);
#287=VERTEX_POINT('',#331);
#288=CIRCLE('',#332,10.6);
#289=VERTEX_POINT('',#333);
#290=CIRCLE('',#334,0.2);
#291=CIRCLE('',#335,10.4);
#292=VERTEX_POINT('',#336);
#293=VERTEX_POINT('',#337);
#294=CIRCLE('',#338,0.2);
#295=VERTEX_POINT('',#339);
#296=CIRCLE('',#340,17.1);
#297=VERTEX_POINT('',#341);
#298=CIRCLE('',#342,0.2);
#299=CIRCLE('',#343,17.3);
#300=LINE('',#344,#345);
#301=CIRCLE('',#346,17.3);
#302=LINE('',#347,#348);
#303=CIRCLE('',#349,17.3);
#304=VERTEX_POINT('',#350);
#305=VERTEX_POINT('',#351);
#306=CIRCLE('',#352,0.2);
#307=VERTEX_POINT('',#353);
#308=CIRCLE('',#354,10.4);
#309=VERTEX_POINT('',#355);
#310=CIRCLE('',#356,0.2);
#311=CIRCLE('',#357,10.6);
#312=LINE('',#358,#359);
#313=CIRCLE('',#360,10.4);
#314=LINE('',#361,#362);
#315=CIRCLE('',#363,10.4);
#316=CIRCLE('',#364,10.6);
#317=CIRCLE('',#365,17.1);
#318=CIRCLE('',#366,10.6);
#319=CIRCLE('',#367,17.1);
#320=CARTESIAN_POINT('',(0.0,6.15,17.3));
#321=CARTESIAN_POINT('',(0.0,6.35,17.1));
#322=AXIS2_PLACEMENT_3D('',#368,#369,#370);
#323=CARTESIAN_POINT('',(2.11856899211271E-15,6.15,-17.3));
#324=AXIS2_PLACEMENT_3D('',#371,#372,#373);
#325=CARTESIAN_POINT('',(2.09407686503627E-15,6.35,-17.1));
#326=AXIS2_PLACEMENT_3D('',#374,#375,#376);
#327=AXIS2_PLACEMENT_3D('',#377,#378,#379);
#328=CARTESIAN_POINT('',(0.0,6.35,10.6));
#329=CARTESIAN_POINT('',(0.0,6.15,10.4));
#330=AXIS2_PLACEMENT_3D('',#380,#381,#382);
#331=CARTESIAN_POINT('',(1.29808273505172E-15,6.35,-10.6));
#332=AXIS2_PLACEMENT_3D('',#383,#384,#385);
#333=CARTESIAN_POINT('',(1.27359060797527E-15,6.15,-10.4));
#334=AXIS2_PLACEMENT_3D('',#386,#387,#388);
#335=AXIS2_PLACEMENT_3D('',#389,#390,#391);
#336=CARTESIAN_POINT('',(0.0,-6.35,17.1));
#337=CARTESIAN_POINT('',(0.0,-6.15,17.3));
#338=AXIS2_PLACEMENT_3D('',#392,#393,#394);
#339=CARTESIAN_POINT('',(2.09407686503627E-15,-6.35,-17.1));
#340=AXIS2_PLACEMENT_3D('',#395,#396,#397);
#341=CARTESIAN_POINT('',(2.11856899211271E-15,-6.15,-17.3));
#342=AXIS2_PLACEMENT_3D('',#398,#399,#400);
#343=AXIS2_PLACEMENT_3D('',#401,#402,#403);
#344=CARTESIAN_POINT('',(-2.11856899211271E-15,0.0,17.3));
#345=VECTOR('',#404,1.0);
#346=AXIS2_PLACEMENT_3D('',#405,#406,#407);
#347=CARTESIAN_POINT('',(2.11856899211271E-15,0.0,-17.3));
#348=VECTOR('',#408,1.0);
#349=AXIS2_PLACEMENT_3D('',#409,#410,#411);
#350=CARTESIAN_POINT('',(0.0,-6.15,10.4));
#351=CARTESIAN_POINT('',(0.0,-6.35,10.6));
#352=AXIS2_PLACEMENT_3D('',#412,#413,#414);
#353=CARTESIAN_POINT('',(1.27359060797527E-15,-6.15,-10.4));
#354=AXIS2_PLACEMENT_3D('',#415,#416,#417);
#355=CARTESIAN_POINT('',(1.29808273505172E-15,-6.35,-10.6));
#356=AXIS2_PLACEMENT_3D('',#418,#419,#420);
#357=AXIS2_PLACEMENT_3D('',#421,#422,#423);
#358=CARTESIAN_POINT('',(-1.27359060797527E-15,0.0,10.4));
#359=VECTOR('',#424,1.0);
#360=AXIS2_PLACEMENT_3D('',#425,#426,#427);
#361=CARTESIAN_POINT('',(1.27359060797527E-15,0.0,-10.4));
#362=VECTOR('',#428,1.0);
#363=AXIS2_PLACEMENT_3D('',#429,#430,#431);
#364=AXIS2_PLACEMENT_3D('',#432,#433,#434);
#365=AXIS2_PLACEMENT_3D('',#435,#436,#437);
#366=AXIS2_PLACEMENT_3D('',#438,#439,#440);
#367=AXIS2_PLACEMENT_3D('',#441,#442,#443);
#368=CARTESIAN_POINT('',(-2.09407686503627E-15,6.15,17.1));
#369=DIRECTION('',(-1.0,0.0,-1.22460635382238E-16));
#370=DIRECTION('',(-1.22460635382238E-16,-0.0,1.0));
#371=CARTESIAN_POINT('',(0.0,6.15,0.0));
#372=DIRECTION('',(0.0,1.0,0.0));
#373=DIRECTION('',(0.0,0.0,1.0));
#374=CARTESIAN_POINT('',(2.09407686503627E-15,6.15,-17.1));
#375=DIRECTION('',(-1.0,0.0,-1.22460635382238E-16));
#376=DIRECTION('',(1.22460635382238E-16,0.0,-1.0));
#377=CARTESIAN_POINT('',(0.0,6.35,0.0));
#378=DIRECTION('',(0.0,1.0,0.0));
#379=DIRECTION('',(0.0,0.0,1.0));
#380=CARTESIAN_POINT('',(-1.29808273505172E-15,6.15,10.6));
#381=DIRECTION('',(-1.0,0.0,-1.22460635382238E-16));
#382=DIRECTION('',(-1.22460635382238E-16,-0.0,1.0));
#383=CARTESIAN_POINT('',(0.0,6.35,0.0));
#384=DIRECTION('',(0.0,1.0,0.0));
#385=DIRECTION('',(0.0,0.0,1.0));
#386=CARTESIAN_POINT('',(1.29808273505172E-15,6.15,-10.6));
#387=DIRECTION('',(-1.0,0.0,-1.22460635382238E-16));
#388=DIRECTION('',(1.22460635382238E-16,0.0,-1.0));
#389=CARTESIAN_POINT('',(0.0,6.15,0.0));
#390=DIRECTION('',(0.0,1.0,0.0));
#391=DIRECTION('',(0.0,0.0,1.0));
#392=CARTESIAN_POINT('',(-2.09407686503627E-15,-6.15,17.1));
#393=DIRECTION('',(-1.0,0.0,-1.22460635382238E-16));
#394=DIRECTION('',(-1.22460635382238E-16,-0.0,1.0));
#395=CARTESIAN_POINT('',(0.0,-6.35,0.0));
#396=DIRECTION('',(0.0,1.0,0.0));
#397=DIRECTION('',(0.0,0.0,1.0));
#398=CARTESIAN_POINT('',(2.09407686503627E-15,-6.15,-17.1));
#399=DIRECTION('',(-1.0,0.0,-1.22460635382238E-16));
#400=DIRECTION('',(1.22460635382238E-16,0.0,-1.0));
#401=CARTESIAN_POINT('',(0.0,-6.15,0.0));
#402=DIRECTION('',(0.0,1.0,0.0));
#403=DIRECTION('',(0.0,0.0,1.0));
#404=DIRECTION('',(-0.0,-1.0,0.0));
#405=CARTESIAN_POINT('',(0.0,6.15,0.0));
#406=DIRECTION('',(0.0,1.0,0.0));
#407=DIRECTION('',(0.0,0.0,1.0));
#408=DIRECTION('',(0.0,1.0,0.0));
#409=CARTESIAN_POINT('',(0.0,-6.15,0.0));
#410=DIRECTION('',(0.0,1.0,0.0));
#411=DIRECTION('',(0.0,0.0,1.0));
#412=CARTESIAN_POINT('',(-1.29808273505172E-15,-6.15,10.6));
#413=DIRECTION('',(-1.0,0.0,-1.22460635382238E-16));
#414=DIRECTION('',(-1.22460635382238E-16,-0.0,1.0));
#415=CARTESIAN_POINT('',(0.0,-6.15,0.0));
#416=DIRECTION('',(0.0,1.0,0.0));
#417=DIRECTION('',(0.0,0.0,1.0));
#418=CARTESIAN_POINT('',(1.29808273505172E-15,-6.15,-10.6));
#419=DIRECTION('',(-1.0,0.0,-1.22460635382238E-16));
#420=DIRECTION('',(1.22460635382238E-16,0.0,-1.0));
#421=CARTESIAN_POINT('',(0.0,-6.35,0.0));
#422=DIRECTION('',(0.0,1.0,0.0));
#423=DIRECTION('',(0.0,0.0,1.0));
#424=DIRECTION('',(0.0,1.0,-0.0));
#425=CARTESIAN_POINT('',(0.0,-6.15,0.0));
#426=DIRECTION('',(0.0,1.0,0.0));
#427=DIRECTION('',(0.0,0.0,1.0));
#428=DIRECTION('',(0.0,-1.0,0.0));
#429=CARTESIAN_POINT('',(0.0,6.15,0.0));
#430=DIRECTION('',(0.0,1.0,0.0));
#431=DIRECTION('',(0.0,0.0,1.0));
#432=CARTESIAN_POINT('',(0.0,-6.35,0.0));
#433=DIRECTION('',(0.0,1.0,0.0));
#434=DIRECTION('',(0.0,0.0,1.0));
#435=CARTESIAN_POINT('',(0.0,-6.35,0.0));
#436=DIRECTION('',(0.0,1.0,0.0));
#437=DIRECTION('',(0.0,0.0,1.0));
#438=CARTESIAN_POINT('',(0.0,6.35,0.0));
#439=DIRECTION('',(0.0,1.0,0.0));
#440=DIRECTION('',(0.0,0.0,1.0));
#441=CARTESIAN_POINT('',(0.0,6.35,0.0));
#442=DIRECTION('',(0.0,1.0,0.0));
#443=DIRECTION('',(0.0,0.0,1.0));
ENDSEC;
END-ISO-10303-21;
